<?xml version="1.0" standalone="no"?>
<!DOCTYPE svg PUBLIC "-//W3C//DTD SVG 1.1//EN" "http://www.w3.org/Graphics/SVG/1.1/DTD/svg11.dtd" >
<svg xmlns="http://www.w3.org/2000/svg">
<metadata>Generated by IcoMoon</metadata>
<defs>
<font id="fga-icon" horiz-adv-x="1024">
<font-face units-per-em="1024" ascent="896" descent="-128" />
<missing-glyph horiz-adv-x="1024" />
<glyph unicode="&#x20;" horiz-adv-x="0" d="" />
<glyph unicode="&#xe900;" glyph-name="icon-detail" d="M256.819-128c-0.035 0-0.077 0-0.119 0-42.811 0-77.517 34.705-77.517 77.517 0 23.678 10.616 44.877 27.349 59.096l0.111 0.092 442.266 375.296-442.266 375.296c-16.796 14.315-27.378 35.49-27.378 59.136 0 42.832 34.722 77.554 77.554 77.554 19.186 0 36.745-6.967 50.285-18.509l-0.109 0.090 512-434.381c16.843-14.31 27.46-35.509 27.46-59.187s-10.616-44.877-27.349-59.095l-0.111-0.092-512-434.381c-13.362-11.458-30.862-18.432-49.99-18.432-0.065 0-0.131 0-0.196 0h0.010z" />
<glyph unicode="&#xe901;" glyph-name="icon-employee" d="M512 395.457c-0.030 0-0.066 0-0.101 0-82.255 0-148.936 66.681-148.936 148.936s66.681 148.936 148.936 148.936c82.255 0 148.936-66.681 148.936-148.936 0-0.036 0-0.071 0-0.107v0.006c-0.058-82.176-66.659-148.777-148.829-148.835h-0.006zM512 635.843c-50.395 0-91.248-40.853-91.248-91.248s40.853-91.248 91.248-91.248c50.395 0 91.248 40.853 91.248 91.248v0c0 50.395-40.853 91.248-91.248 91.248v0zM512 390.387c-0.030 0-0.066 0-0.101 0-85.055 0-154.006 68.951-154.006 154.006s68.951 154.006 154.006 154.006c85.055 0 154.006-68.951 154.006-154.006 0-0.036 0-0.071 0-0.107v0.006c-0.115-84.952-68.952-153.789-153.893-153.904h-0.011zM512 688.158c-0.030 0-0.066 0-0.101 0-79.456 0-143.867-64.411-143.867-143.867s64.411-143.867 143.867-143.867c79.456 0 143.867 64.411 143.867 143.867v0c-0.058 79.397-64.377 143.752-143.754 143.867h-0.011zM512 447.772c-53.362 0-96.621 43.259-96.621 96.621s43.259 96.621 96.621 96.621c53.362 0 96.621-43.259 96.621-96.621 0-0.036 0-0.071 0-0.107v0.006c-0.058-53.319-43.294-96.52-96.621-96.52v0zM512 630.774c-47.763 0-86.482-38.719-86.482-86.482s38.719-86.482 86.482-86.482c47.763 0 86.482 38.719 86.482 86.482v0c0 47.763-38.719 86.482-86.482 86.482v0zM793.144 70.818h-562.389v122.474c0.285 91.988 71.379 167.282 161.619 174.246l0.598 0.037 12.775 0.912 9.328-8.922c25.060-24.451 59.358-39.535 97.179-39.535s72.119 15.083 97.207 39.562l-0.028-0.027 9.226 8.922 12.876-0.912c90.817-7.050 161.883-82.314 162.218-174.249v-0.034zM288.139 128.203h447.62v65.090c-0.193 57.56-41.635 105.385-96.302 115.469l-0.725 0.111c-34.003-28.721-78.329-46.178-126.733-46.178s-92.729 17.457-127.025 46.419l0.293-0.241c-55.435-10.153-96.926-57.991-97.128-115.559v-0.022zM798.213 65.749h-572.528v127.544c0.040 94.75 73.092 172.425 165.945 179.819l0.632 0.040 15.107 1.115 10.848-10.139c24.183-23.515 57.239-38.015 93.681-38.015s69.498 14.5 93.712 38.045l-0.031-0.030 10.95 10.139 15.107-1.115c93.486-7.434 166.538-85.109 166.577-179.855v-0.004zM235.824 75.888h552.25v117.405c-0.276 89.195-69.109 162.225-156.553 169.175l-0.595 0.038-10.139 0.811-7.604-7.401c-25.984-25.324-61.531-40.943-100.727-40.943s-74.743 15.619-100.758 40.973l0.031-0.030-7.604 7.401-10.646-0.811c-88.258-6.733-157.358-79.856-157.655-169.184v-0.030zM740.829 123.133h-457.758v70.159c0 0.052 0 0.113 0 0.175 0 60.149 43.432 110.155 100.646 120.365l0.74 0.109h2.332l1.724-1.622c33.131-27.99 76.323-45.004 123.488-45.004s90.357 17.014 123.773 45.238l-0.285-0.234 1.825 1.622h2.332c57.954-10.32 101.386-60.325 101.386-120.475 0-0.061 0-0.123 0-0.184v0.010zM293.209 133.272h437.481v60.021c0 0.027 0 0.058 0 0.089 0 54.309-38.573 99.608-89.817 109.995l-0.72 0.122c-34.574-28.593-79.363-45.939-128.203-45.939s-93.629 17.345-128.542 46.211l0.34-0.273c-51.958-10.467-90.538-55.745-90.538-110.034 0-0.061 0-0.122 0-0.182v0.009zM797.706 371.327c-68.985 0-124.908 55.923-124.908 124.908s55.923 124.908 124.908 124.908c68.985 0 124.908-55.923 124.908-124.908v0c-0.058-68.961-55.946-124.85-124.902-124.908h-0.006zM797.706 563.96c-37.292 0-67.523-30.231-67.523-67.523s30.231-67.523 67.523-67.523c37.292 0 67.523 30.231 67.523 67.523v0c-0.115 37.205-30.302 67.32-67.523 67.32 0 0 0 0 0 0v0zM797.706 366.257c-71.784 0-129.977 58.193-129.977 129.977s58.193 129.977 129.977 129.977c71.784 0 129.977-58.193 129.977-129.977v0c-0.058-71.761-58.216-129.919-129.971-129.977h-0.006zM797.706 616.073c-66.185 0-119.838-53.653-119.838-119.838s53.653-119.838 119.838-119.838c66.185 0 119.838 53.653 119.838 119.838v0c-0.058 66.162-53.677 119.781-119.833 119.838h-0.006zM797.706 423.439c-40.092 0-72.592 32.501-72.592 72.592s32.501 72.592 72.592 72.592c40.092 0 72.592-32.501 72.592-72.592v0c-0.173-39.981-32.595-72.332-72.587-72.39h-0.005zM797.706 558.486c-34.492 0-62.454-27.962-62.454-62.454s27.962-62.454 62.454-62.454c34.492 0 62.454 27.962 62.454 62.454v0c-0.115 34.405-28.033 62.251-62.454 62.251 0 0 0 0 0 0v0zM1018.931 118.875h-221.326v57.385h163.941v43.495c-0.058 37.248-30.267 67.422-67.523 67.422v0c-24.489-22.396-57.238-36.116-93.192-36.116-0.885 0-1.768 0.008-2.649 0.025l0.132-0.002v57.385c0.719-0.023 1.564-0.036 2.412-0.036 23.874 0 45.34 10.315 60.182 26.732l0.062 0.070 8.516 9.023h24.535c0 0 0 0 0.001 0 68.842 0 124.677-55.692 124.907-124.48v-0.022zM1024 113.806h-231.465v67.523h163.941v38.425c-0.045 33.888-27.072 61.448-60.748 62.351l-0.084 0.002c-25.197-22.418-58.585-36.115-95.173-36.115-0.866 0-1.73 0.008-2.592 0.023l0.13-0.002h-5.069v67.523h5.069c0.698-0.023 1.518-0.036 2.341-0.036 22.635 0 42.978 9.812 57.009 25.414l0.062 0.070 10.139 10.139h26.766c71.417-0.229 129.271-57.976 129.673-129.33v-0.038zM802.674 123.945h211.187v95.81c-0.115 66.118-53.712 119.679-119.833 119.737h-22.311l-6.996-7.401c-15.254-17.1-37.18-27.968-61.653-28.488l-0.091-0.002v-47.347c33.694 0.627 64.221 13.686 87.295 34.767l-0.103-0.093 1.521 1.318h1.926c0.090 0 0.197 0.001 0.304 0.001 40.077 0 72.579-32.431 72.694-72.481v-48.575h-163.941zM226.294 371.327c-0.030 0-0.066 0-0.101 0-68.985 0-124.908 55.923-124.908 124.908s55.923 124.908 124.908 124.908c68.985 0 124.908-55.923 124.908-124.908v0c-0.058-68.926-55.889-124.792-124.795-124.908h-0.011zM226.294 563.96c-0.030 0-0.066 0-0.101 0-37.292 0-67.523-30.231-67.523-67.523s30.231-67.523 67.523-67.523c37.292 0 67.523 30.231 67.523 67.523v0c-0.115 37.169-30.244 67.263-67.416 67.32h-0.006zM226.192 366.257c-71.784 0-129.977 58.193-129.977 129.977s58.193 129.977 129.977 129.977c71.784 0 129.977-58.193 129.977-129.977v0c-0.058-71.761-58.216-129.919-129.971-129.977h-0.006zM226.192 616.073c-66.185 0-119.838-53.653-119.838-119.838s53.653-119.838 119.838-119.838c66.185 0 119.838 53.653 119.838 119.838v0c-0.058 66.162-53.677 119.781-119.833 119.838h-0.006zM226.192 423.439c-39.961 0.173-72.288 32.607-72.288 72.592 0 40.092 32.501 72.592 72.592 72.592 40.020 0 72.477-32.385 72.592-72.378v-0.011c-0.058-40.104-32.582-72.593-72.694-72.593-0.071 0-0.143 0-0.214 0h0.011zM226.192 558.486c-34.361-0.173-62.149-28.068-62.149-62.453 0-34.492 27.962-62.454 62.454-62.454s62.454 27.962 62.454 62.454c0 0.071 0 0.142 0 0.213v-0.011c-0.23 34.318-28.103 62.049-62.453 62.049-0.107 0-0.215 0-0.322-0.001h0.017zM226.395 118.875h-221.326v101.386c0.288 68.639 55.94 124.185 124.592 124.299h24.344l8.516-8.922c15.179-16.736 37.009-27.203 61.283-27.203 0.804 0 1.605 0.011 2.404 0.034l-0.117-0.003v-57.385c-0.712-0.013-1.551-0.021-2.392-0.021-36.090 0-68.978 13.715-93.735 36.216l0.114-0.102c-37.136-0.058-67.219-30.176-67.219-67.32 0-0.036 0-0.071 0-0.107v0.005-43.495h163.536zM231.465 113.806h-231.465v105.949c0.057 71.634 58.055 129.703 129.656 129.876h26.479l10.139-10.139c14.272-15.798 34.833-25.682 57.702-25.682 0.78 0 1.557 0.011 2.331 0.034l-0.114-0.003h5.069v-67.827h-5.069c-0.698-0.012-1.521-0.019-2.346-0.019-36.722 0-70.246 13.691-95.746 36.246l0.154-0.133c-33.759-0.905-60.787-28.465-60.832-62.348v-38.429h164.043zM10.139 123.945h211.187v47.246h-163.941v48.564c0 0 0 0 0 0 0 39.964 32.34 72.376 72.277 72.491h1.937l1.825-1.217c23.119-21.003 53.767-34.085 87.458-34.773l0.139-0.002v47.347c-24.721 0.621-46.784 11.497-62.185 28.517l-0.066 0.074-6.996 7.3h-22.102c-66.019-0.173-119.477-53.702-119.534-119.731v-0.006z" />
<glyph unicode="&#xe902;" d="M89.884 388.096c-7.737 0-9.557-3.641-9.557-9.557v-20.252c0-5.916 1.82-9.557 9.557-9.557h29.355l-0.003 0.074c0.026-0.523 0.039-1.050 0.039-1.58 0-17.469-14.161-31.63-31.63-31.63-1.699 0-3.367 0.134-4.815 0.369l0.158 0.016c-1.328-0.168-2.682-0.254-4.056-0.254-17.72 0-32.085 14.365-32.085 32.085 0 0.484 0.011 0.965 0.029 1.375v66.219l0.006-0.109c-0.058 0.81-0.087 1.627-0.087 2.451 0 18.726 15.18 33.906 33.906 33.906 0.749 0 1.492-0.024 2.129-0.067 22.073 0 28.444-9.785 32.085-20.025 1.593-4.551 0.455-11.15 9.557-11.15h31.858c7.509 0 9.557 1.138 9.557 9.102 0 44.373-44.373 68.267-83.058 68.267s-82.83-22.073-82.83-74.183v-80.782c0-51.883 44.146-71.68 82.83-71.68l-0.294 0.021c2.271-0.202 4.57-0.305 6.894-0.305 39.532 0 72.098 29.824 76.458 68.55v40.96c0 5.916-2.048 9.557-9.557 9.557zM326.542 487.765h-103.993c-7.509 0-9.557-3.641-9.557-9.557v-22.756c0-5.916 2.048-9.557 9.557-9.557h103.993c7.509 0 9.33 3.641 9.33 9.557v22.756c0 5.916-1.82 9.557-9.33 9.557zM525.881 478.208c0 7.509-3.641 9.557-9.557 7.964h-26.169c-5.916 0-9.557-2.048-9.557-9.557v-113.778l-69.632 113.778c-4.324 6.599-6.599 11.15-14.791 11.15h-24.121c-7.509 0-9.557-3.641-9.557-9.557v-195.925c0-7.509 3.641-9.557 9.557-9.557h25.031c5.916 0 9.557 2.048 9.557 9.557v113.778l69.632-113.778c4.324-6.599 6.599-11.378 14.791-11.378h25.259c7.509 0 9.557 3.641 9.557 9.557v197.746zM741.376 380.814c13.712-7.252 22.895-21.423 22.895-37.74 0-1.213-0.051-2.415-0.15-3.603l0.010 0.155c0.048-0.939 0.076-2.039 0.076-3.145 0-36.195-29.341-65.536-65.536-65.536-2.592 0-5.149 0.151-7.663 0.443l0.306-0.029h-91.022c-7.509 0-9.557 3.641-9.557 9.557v78.279h-31.403c-7.509 0-9.557 3.641-9.557 9.557v23.893c0 5.916 2.048 9.557 9.557 9.557h32.085v76.459c0 5.916 2.048 9.557 9.557 9.557h100.124c31.851-1.947 56.945-28.255 56.945-60.424 0-0.918-0.020-1.831-0.061-2.738l0.005 0.129c-0.067-17.011-6.345-32.543-16.683-44.458l0.072 0.085zM637.838 452.494v-49.152h55.296c1.638-0.184 3.538-0.288 5.461-0.288s3.823 0.105 5.693 0.309l-0.231-0.020c8.369 1.753 14.564 9.071 14.564 17.837 0 1.014-0.083 2.008-0.242 2.976l0.014-0.106c0.308 1.403 0.484 3.015 0.484 4.668 0 12.568-10.188 22.756-22.756 22.756-0.812 0-1.613-0.042-2.403-0.125l0.099 0.008h-56.661zM692.907 312.32c0.751-0.088 1.622-0.138 2.504-0.138 12.568 0 22.756 10.188 22.756 22.756 0 0.049 0 0.097 0 0.146v-0.007c0 17.749-11.378 22.756-27.307 22.756h-53.703v-46.876zM794.169 425.415v-144.27c0-7.509 3.641-9.557 9.557-9.557h27.079c5.916 0 9.557 2.048 9.557 9.557v144.953h-45.511zM912.27 311.637v166.571c0 7.509-3.641 9.557-9.557 9.557h-27.307c-5.689 0-9.33-2.048-9.33-9.557v-198.201c0-5.916 1.82-9.557 9.33-9.557h136.533c7.509 0 9.33 3.641 9.33 9.557v22.756c0 5.916-1.82 9.557-9.33 9.557z" />
<glyph unicode="&#xe903;" d="M310.158 398.336c7.509 0 9.557-3.641 9.557-9.557v-22.756c0-6.144-2.048-9.557-9.557-9.557h-109.909c-7.509 0-9.33 3.413-9.33 9.557v22.756c0 5.916 1.82 9.557 9.33 9.557h109.909zM332.914 310.955c7.737 0 9.557-3.641 9.557-9.557v-22.528c0-5.916-1.82-9.557-9.557-9.557h-87.609c-7.509 0-9.557 3.641-9.557 9.557v22.756c0 5.916 2.048 9.557 9.557 9.557h86.471zM841.728 445.668v-17.749l-45.511 25.486v28.217c0 7.509 3.641 9.557 9.557 9.557h26.624c5.916 0 9.557-2.048 9.557-9.557z" />
<glyph unicode="&#xe904;" glyph-name="icon-guide" d="M827.934 212.932l-50.196 67.564c-7.582 10.023-17.819 17.671-29.668 21.945l-0.449 0.142c-6.122 2.18-13.183 3.439-20.539 3.439-13.766 0-26.502-4.412-36.87-11.899l0.185 0.127-15.46-11.043c-18.488 24.957-35.971 53.232-51.041 82.938l-1.564 3.399c-13.802 26.141-26.768 57.008-37.082 89.064l-1.168 4.2 17.669 4.919c26.050 7.021 44.907 30.435 44.907 58.252 0 6.296-0.966 12.366-2.758 18.071l0.116-0.427-24.094 80.314c-8.241 26.004-32.030 44.575-60.2 44.875h-0.035c-7.972-0.14-15.642-1.12-23.020-2.856l0.733 0.145-11.746-3.313c-3.112-1.104-6.224-2.409-9.236-3.815-16.838-8.296-30.646-20.495-40.624-35.465l-0.235-0.375c-44.976-65.556-33.832-190.344 26.403-310.513 50.899-100.392 127.197-178.296 199.278-202.792v0c10.867-3.937 23.482-6.748 36.576-7.891l0.569-0.040c2.469-0.203 5.345-0.319 8.247-0.319 16.668 0 32.444 3.822 46.499 10.636l-0.635-0.278c3.957 1.83 7.248 3.638 10.406 5.638l-0.367-0.217 10.039 7.027c5.49 4.499 10.359 9.368 14.713 14.675l0.145 0.183c8.002 10.13 12.835 23.085 12.835 37.169 0 13.795-4.637 26.507-12.438 36.662l0.105-0.143zM796.612 163.338c-2.603-3.159-5.363-5.983-8.344-8.559l-0.089-0.075-8.232-5.823c-1.322-0.894-2.839-1.733-4.429-2.435l-0.189-0.074c-8.188-3.86-17.785-6.114-27.909-6.114-2.192 0-4.359 0.106-6.496 0.312l0.272-0.021c-9.967 0.856-19.172 2.921-27.863 6.062l0.757-0.239c-61.54 20.982-130.51 92.863-176.489 183.115-53.81 106.416-65.757 218.554-29.716 271.962 6.412 9.703 15.056 17.446 25.227 22.617l0.373 0.172 4.016 1.707 10.039 2.711c4.004 0.936 8.609 1.484 13.337 1.506h0.015c0.161 0.004 0.35 0.007 0.54 0.007 2.283 0 4.48-0.37 6.533-1.053l-0.146 0.042c7.019-2.668 12.344-8.388 14.415-15.494l0.042-0.167 24.195-80.314c0.589-1.918 0.927-4.122 0.927-6.406 0-10.377-6.997-19.119-16.53-21.767l-0.159-0.038-36.944-10.039c-8.193-2.262-14.109-9.648-14.109-18.417 0-1.624 0.203-3.2 0.585-4.705l-0.028 0.132c12.31-45.558 28.041-85.153 47.631-122.402l-1.551 3.237c20.635-41.34 43.544-76.928 69.797-109.724l-0.928 1.2c3.708-4.416 9.232-7.203 15.407-7.203 4.348 0 8.373 1.382 11.66 3.731l-0.061-0.041 30.62 22.187c3.776 2.554 8.431 4.077 13.441 4.077 7.675 0 14.515-3.574 18.948-9.148l0.038-0.049 50.196-67.564c3.249-3.808 5.226-8.788 5.226-14.23 0-4.75-1.506-9.148-4.067-12.742l0.046 0.067zM747.821 91.558c-3.213 0-6.525 0-10.039 0-14.72 1.127-28.376 4.090-41.263 8.676l1.106-0.343c-74.391 25.299-152.897 105.010-204.9 207.812-61.641 123.683-72.383 252.587-26.002 320.653 11.21 17.231 26.536 30.915 44.622 39.864l0.655 0.293c2.684 1.397 5.996 2.852 9.404 4.111l0.636 0.206 12.147 3.413c7.048 1.473 15.147 2.317 23.443 2.317 0.476 0 0.952-0.003 1.427-0.008l-0.072 0.001c32.908-0.035 60.755-21.666 70.133-51.482l0.141-0.521 24.094-80.314c1.904-6.080 3.002-13.071 3.002-20.319 0-12.516-3.272-24.267-9.007-34.446l0.182 0.352c-9.183-16.599-24.427-28.898-42.674-34.015l-0.495-0.118-8.433-2.309c11.043-32.245 22.71-59.238 36.159-85.16l-1.624 3.44c15.043-29.626 30.282-54.696 47.169-78.516l-1.29 1.917 7.429 5.321c11.834 8.41 26.578 13.444 42.497 13.444 24.025 0 45.371-11.466 58.866-29.224l0.133-0.182 50.196-67.564c9.072-11.718 14.542-26.623 14.542-42.806 0-16.641-5.784-31.931-15.452-43.969l0.107 0.137c-4.87-5.822-10.097-11.017-15.761-15.7l-0.201-0.162-10.039-7.329c-3.133-2.1-6.783-4.204-10.571-6.070l-0.572-0.255c-14.361-7.033-31.252-11.145-49.104-11.145-0.208 0-0.415 0.001-0.623 0.002h0.032zM560.188 658.472h-0.803c-7.173-0.103-14.082-1.012-20.708-2.641l0.63 0.131-11.144-3.112c-3.061-1.035-5.615-2.121-8.073-3.371l0.342 0.158c-15.192-7.511-27.645-18.548-36.631-32.085l-0.213-0.342c-42.667-62.344-31.824-183.015 27.708-300.072 50.196-98.284 123.884-174.080 193.556-197.873 10.135-3.642 21.9-6.24 34.107-7.292l0.528-0.037c2.55-0.241 5.514-0.378 8.51-0.378 14.733 0 28.69 3.323 41.161 9.261l-0.58-0.249c3.311 1.524 6.11 3.098 8.768 4.865l-0.235-0.147 9.437 6.827c4.857 3.913 9.138 8.194 12.925 12.89l0.126 0.161c6.717 8.388 10.779 19.155 10.779 30.871s-4.062 22.483-10.856 30.969l0.076-0.098-50.196 67.564c-9.884 13.081-25.41 21.446-42.889 21.446-11.579 0-22.3-3.671-31.063-9.912l0.164 0.111-23.492-16.866-6.124 7.73c-18.791 25.435-36.606 54.267-51.993 84.54l-1.616 3.504c-14.022 26.572-27.224 57.967-37.75 90.565l-1.202 4.306-3.012 10.039 28.612 7.831c13.528 3.739 24.547 12.565 31.090 24.239l0.132 0.256c3.982 6.971 6.329 15.32 6.329 24.217 0 5.224-0.809 10.258-2.309 14.985l0.096-0.351-24.094 80.314c-7.207 21.333-26.811 36.517-50.034 37.044l-0.062 0.001zM747.219 130.309h-6.827c-10.831 0.862-20.865 3.037-30.348 6.38l0.833-0.256h-0.703c-63.649 22.689-134.927 96.376-181.509 188.536-55.416 109.528-66.861 225.481-29.013 282.102 7.342 11.21 17.323 20.128 29.087 26.008l0.428 0.194 4.819 2.108 10.039 3.012c4.721 1.045 10.183 1.697 15.779 1.806l0.083 0.001c0.218 0.006 0.475 0.010 0.732 0.010 3.338 0 6.537-0.592 9.498-1.677l-0.192 0.061c10.163-3.669 17.923-11.792 21.020-21.948l0.063-0.239 24.195-80.314c0.872-2.799 1.374-6.017 1.374-9.353 0-14.953-10.090-27.55-23.834-31.352l-0.229-0.054-37.045-10.039c-3.89-1.065-6.701-4.569-6.701-8.728 0-0.787 0.101-1.55 0.289-2.277l-0.014 0.063c12.472-44.792 28.218-83.658 47.719-120.218l-1.539 3.16c20.168-40.62 42.582-75.586 68.284-107.812l-0.921 1.196c1.854-2.213 4.62-3.611 7.711-3.611 2.149 0 4.14 0.675 5.773 1.825l-0.032-0.021 30.921 22.187c5.414 3.775 12.13 6.031 19.374 6.031 10.955 0 20.704-5.16 26.95-13.183l0.057-0.077 50.999-67.162c4.174-5.367 6.692-12.203 6.692-19.627s-2.518-14.259-6.747-19.699l0.054 0.073c-3.049-3.701-6.338-6.99-9.916-9.941l-0.123-0.099-8.734-6.325c-1.664-1.045-3.671-2.149-5.739-3.146l-0.385-0.167c-9.402-4.686-20.479-7.429-32.198-7.429-0.010 0-0.020 0-0.030 0h0.002zM717.904 155.608c7.029-2.521 15.184-4.304 23.647-4.997l0.347-0.023c1.663-0.172 3.593-0.27 5.545-0.27 8.542 0 16.645 1.875 23.922 5.235l-0.354-0.147c1.417 0.679 2.568 1.315 3.681 2.004l-0.168-0.097 7.831 5.622c2.364 2.096 4.501 4.327 6.444 6.722l0.082 0.104c1.313 1.911 2.097 4.275 2.097 6.822 0 2.903-1.018 5.567-2.716 7.657l0.018-0.022-50.196 67.564c-2.634 3.179-6.583 5.189-11.001 5.189-2.807 0-5.424-0.811-7.63-2.212l0.058 0.034-31.021-22.287c-4.777-3.332-10.705-5.323-17.097-5.323-9.234 0-17.498 4.156-23.023 10.7l-0.037 0.045c-25.913 32.153-49.293 68.371-68.684 106.939l-1.591 3.492c-18.436 34.649-34.508 74.975-46.096 117.158l-0.988 4.216c-0.549 2.11-0.864 4.532-0.864 7.028 0 13.331 8.991 24.563 21.241 27.96l0.204 0.048 37.045 10.039c3.334 0.989 6.048 3.18 7.697 6.060l0.034 0.064c1.040 1.753 1.654 3.864 1.654 6.119 0 1.403-0.238 2.751-0.676 4.005l0.026-0.085-24.094 80.314c-1.293 4.127-4.336 7.368-8.238 8.902l-0.095 0.033c-0.543 0.096-1.169 0.152-1.807 0.152s-1.264-0.055-1.872-0.161l0.065 0.009c-3.994-0.022-7.873-0.46-11.613-1.272l0.369 0.067-9.136-2.61-2.51-1.205c-8.867-4.516-16.126-11.067-21.355-19.065l-0.129-0.21c-35.037-50.899-22.588-158.318 29.616-261.923 44.574-88.044 111.636-158.017 170.667-178.196zM902.325 885.961h-697.826c-0.36 0.004-0.786 0.007-1.212 0.007-60.533 0-109.691-48.704-110.423-109.064l-0.001-0.069v-130.51h-60.235c-0.15 0.004-0.326 0.006-0.503 0.006-12.198 0-22.086-9.888-22.086-22.086 0-0.073 0-0.145 0.001-0.218v0.011-87.241c0.113-12.112 9.958-21.886 22.085-21.886 0.071 0 0.142 0 0.212 0.001h60.224v-65.456h-60.235c-0.090 0.001-0.195 0.002-0.301 0.002-12.108 0-21.93-9.787-21.986-21.882v-87.346c0.112-12.057 9.912-21.787 21.985-21.787 0.106 0 0.212 0.001 0.318 0.002h60.219v-65.456h-60.235c-0.060 0.001-0.132 0.001-0.203 0.001-12.092 0-21.915-9.718-22.084-21.77v-87.257c0.113-12.112 9.958-21.886 22.085-21.886 0.071 0 0.142 0 0.212 0.001h60.224v-130.51c0.733-60.429 49.891-109.133 110.424-109.133 0.426 0 0.852 0.002 1.277 0.007l-0.065-0.001h697.826c0.452-0.007 0.985-0.010 1.519-0.010 60.393 0 109.463 48.48 110.417 108.645l0.001 0.090v785.669c-0.733 60.429-49.891 109.133-110.424 109.133-0.426 0-0.852-0.002-1.277-0.007l0.065 0.001zM54.714 602.253h96.778v-44.173h-96.778zM54.714 405.785h96.778v-43.57h-96.778zM54.714 209.418h96.778v-43.671h-96.778zM137.537-8.835v130.51h36.242c0.060-0.001 0.132-0.001 0.203-0.001 12.148 0 22.015 9.763 22.184 21.87v87.658c-0.169 12.124-10.037 21.886-22.185 21.886-0.071 0-0.143 0-0.214-0.001h-36.231v65.456h36.242c0.090-0.001 0.197-0.002 0.303-0.002 12.093 0 21.916 9.719 22.084 21.771v87.257c-0.169 12.069-9.991 21.787-22.084 21.787-0.107 0-0.213-0.001-0.319-0.002h-36.226v65.556h36.242c0.060-0.001 0.132-0.001 0.203-0.001 12.148 0 22.015 9.763 22.184 21.87v87.257c-0.169 12.124-10.037 21.886-22.185 21.886-0.071 0-0.143 0-0.214-0.001h-36.231v130.51c0.451 36.248 29.941 65.459 66.254 65.459 0.249 0 0.497-0.001 0.745-0.004h68.028v-916.279h-68.066c-0.21-0.002-0.458-0.004-0.706-0.004-36.348 0-65.86 29.268-66.255 65.522v0.037zM969.286-8.835c-0.451-36.248-29.941-65.459-66.254-65.459-0.249 0-0.497 0.001-0.745 0.004h-585.047v916.58h585.085c0.21 0.002 0.459 0.004 0.708 0.004 36.313 0 65.803-29.211 66.254-65.417v-0.043zM902.325-128h-697.826c-0.36-0.004-0.786-0.006-1.212-0.006-66.077 0-119.73 53.199-120.463 119.102l-0.001 0.069v120.471h-50.196c-0.119-0.002-0.26-0.003-0.402-0.003-17.798 0-32.226 14.428-32.226 32.226 0 0.036 0 0.072 0 0.108v-0.006 87.241c0.17 17.668 14.532 31.925 32.224 31.925 0.036 0 0.072 0 0.107 0h50.19v45.377h-50.196c-0.060 0-0.131-0.001-0.202-0.001-17.637 0-31.954 14.212-32.124 31.809v87.257c0.17 17.613 14.487 31.825 32.124 31.825 0.071 0 0.142 0 0.213-0.001h50.185v45.478h-50.196c-0.030 0-0.066 0-0.102 0-17.692 0-32.054 14.257-32.224 31.909v87.257c0.17 17.668 14.532 31.925 32.224 31.925 0.036 0 0.072 0 0.107 0h50.19v120.471c0.507 66.148 54.248 119.577 120.467 119.577 0.531 0 1.060-0.003 1.59-0.010l-0.080 0.001h697.826c0.36 0.004 0.786 0.006 1.212 0.006 66.077 0 119.73-53.199 120.463-119.102l0.001-0.069v-785.669c-0.734-65.973-54.386-119.172-120.464-119.172-0.426 0-0.852 0.002-1.277 0.007l0.065-0.001zM32.326 243.451c-0.060 0.001-0.131 0.002-0.202 0.002-6.653 0-12.047-5.394-12.047-12.047 0-0.071 0.001-0.142 0.002-0.213v0.011-87.241c0.112-6.567 5.462-11.848 12.045-11.848 0.071 0 0.142 0.001 0.213 0.002h70.264v-140.549c0.732-54.884 45.395-99.094 100.384-99.094 0.427 0 0.852 0.003 1.278 0.008l-0.065-0.001h697.826c0.452-0.007 0.986-0.012 1.52-0.012 54.849 0 99.425 43.986 100.377 98.608l0.001 0.089v785.669c-0.732 54.884-45.395 99.094-100.384 99.094-0.427 0-0.852-0.003-1.278-0.008l0.065 0.001h-697.826c-0.361 0.005-0.787 0.007-1.213 0.007-54.989 0-99.652-44.21-100.383-99.025l-0.001-0.069v-140.549h-70.275c-0.15 0.007-0.327 0.011-0.504 0.011-6.653 0-12.047-5.394-12.047-12.047 0-0.074 0.001-0.148 0.002-0.222v0.011-87.241c0.112-6.567 5.462-11.848 12.045-11.848 0.071 0 0.142 0.001 0.213 0.002h70.264v-85.534h-70.275c-0.060 0.001-0.131 0.002-0.202 0.002-6.583 0-11.933-5.281-12.045-11.837v-87.351c0.167-6.523 5.495-11.748 12.043-11.748 0.072 0 0.144 0.001 0.215 0.002h70.264v-85.534zM902.325-84.43h-595.125v936.759h595.125c0.21 0.002 0.458 0.003 0.707 0.003 41.857 0 75.842-33.705 76.293-75.455v-785.712c-0.396-41.836-34.403-75.599-76.295-75.599-0.248 0-0.496 0.001-0.744 0.004h0.038zM327.278-64.351h575.046c0.211-0.003 0.459-0.004 0.708-0.004 30.768 0 55.764 24.717 56.213 55.379v785.811c-0.45 30.704-25.446 55.421-56.214 55.421-0.249 0-0.498-0.002-0.746-0.005h-575.008zM282.604-84.43h-78.105c-0.21-0.002-0.458-0.003-0.707-0.003-41.857 0-75.842 33.705-76.293 75.455v140.592h46.281c0.061-0.001 0.133-0.002 0.204-0.002 6.604 0 11.976 5.269 12.143 11.833v87.758c-0.167 6.579-5.54 11.848-12.144 11.848-0.072 0-0.144-0.001-0.215-0.002h-46.27v85.534h46.281c0.091-0.002 0.198-0.004 0.305-0.004 6.549 0 11.877 5.225 12.043 11.734v87.256c-0.166 6.524-5.495 11.75-12.043 11.75-0.107 0-0.214-0.001-0.321-0.004h-46.265v85.635h46.281c0.061-0.001 0.133-0.002 0.204-0.002 6.604 0 11.976 5.269 12.143 11.833v87.256c-0.167 6.579-5.54 11.848-12.144 11.848-0.072 0-0.144-0.001-0.215-0.002h-46.27v140.549c0.452 41.793 34.437 75.498 76.294 75.498 0.249 0 0.497-0.001 0.745-0.004h78.067zM147.576 112.038v-120.471c0.168-30.921 25.274-55.923 56.219-55.923 0.247 0 0.494 0.002 0.741 0.005h57.989v896.602h-58.027c-0.211 0.003-0.459 0.004-0.708 0.004-30.768 0-55.764-24.717-56.213-55.379v-120.513h26.202c0.060 0 0.131 0.001 0.202 0.001 17.692 0 32.054-14.257 32.224-31.909v-87.257c-0.17-17.668-14.532-31.925-32.224-31.925-0.071 0-0.142 0-0.213 0.001h-26.191v-45.377h26.202c0.090 0.001 0.196 0.001 0.302 0.001 17.742 0 32.125-14.383 32.125-32.125 0-0.071 0-0.142-0.001-0.213v0.011-87.341c-0.17-17.613-14.487-31.826-32.124-31.826-0.106 0-0.213 0.001-0.319 0.002h-26.186v-45.377h26.202c0.060 0 0.131 0.001 0.202 0.001 17.692 0 32.054-14.257 32.224-31.909v-87.257c-0.17-17.668-14.532-31.925-32.224-31.925-0.071 0-0.142 0-0.213 0.001h0.011zM161.531 155.708h-116.856v63.749h116.856zM64.753 175.787h76.7v23.592h-76.7zM161.531 352.176h-116.856v63.649h116.856zM64.753 372.254h76.7v23.492h-76.7zM161.531 548.041h-116.856v64.251h116.856zM64.753 568.119h76.7v24.094h-76.7z" />
<glyph unicode="&#xe905;" d="M0 727.040h1024v-682.701h-1024v682.701z" />
<glyph unicode="&#xe906;" d="M0 727.040h1024v-227.533h-1024v227.533z" />
<glyph unicode="&#xe907;" d="M0 271.974h1024v-227.533h-1024v227.533z" />
<glyph unicode="&#xe908;" d="M0 727.040h1024v-682.701h-1024v682.701z" />
<glyph unicode="&#xe909;" d="M576 727.040h-128v-277.299h-448v-128h448v-277.402h128v277.402h448v128h-448v277.299z" />
<glyph unicode="&#xe90a;" d="M787.558 266.957l236.442-131.379v131.379h-236.442z" />
<glyph unicode="&#xe90b;" d="M623.309 266.957l400.691-222.618v62.976l-287.334 159.642h-113.357z" />
<glyph unicode="&#xe90c;" d="M917.299 44.339l-293.99 163.328v-163.328h293.99z" />
<glyph unicode="&#xe90d;" d="M623.309 266.957l400.691-222.618v62.976l-287.334 159.642h-113.357z" />
<glyph unicode="&#xe90e;" d="M623.309 266.957l400.691-222.618v62.976l-287.334 159.642h-113.357z" />
<glyph unicode="&#xe90f;" d="M180.634 266.957l-180.634-100.352v100.352h180.634z" />
<glyph unicode="&#xe910;" d="M400.691 238.694v-194.355h-349.696l349.696 194.355z" />
<glyph unicode="&#xe911;" d="M287.437 266.957l-287.437-159.642v-62.976l400.691 222.618h-113.254z" />
<glyph unicode="&#xe912;" d="M236.442 504.422l-236.442 131.379v-131.379h236.442z" />
<glyph unicode="&#xe913;" d="M400.691 504.422l-400.691 222.618v-62.976l287.437-159.642h113.254z" />
<glyph unicode="&#xe914;" d="M106.701 727.040l293.99-163.328v163.328h-293.99z" />
<glyph unicode="&#xe915;" d="M400.691 504.422l-400.691 222.618v-62.976l287.437-159.642h113.254z" />
<glyph unicode="&#xe916;" d="M400.691 504.422l-400.691 222.618v-62.976l287.437-159.642h113.254z" />
<glyph unicode="&#xe917;" d="M843.366 504.422l180.634 100.352v-100.352h-180.634z" />
<glyph unicode="&#xe918;" d="M623.309 532.685v194.355h349.696l-349.696-194.355z" />
<glyph unicode="&#xe919;" d="M736.666 504.422l287.334 159.642v62.976l-400.691-222.618h113.357z" />
<glyph unicode="&#xe91a;" d="M0 727.040h1024v-682.701h-1024v682.701z" />
<glyph unicode="&#xe91b;" d="M0 727.040h341.299v-682.701h-341.299v682.701z" />
<glyph unicode="&#xe91c;" d="M682.701 727.040h341.299v-682.701h-341.299v682.701z" />
<glyph unicode="&#xe91d;" d="M1024 498.278h-1024v205.619c0 0.030 0 0.066 0 0.102 0 9.727 7.886 17.613 17.613 17.613 0 0 0 0 0 0h988.774c0 0 0 0 0 0 9.727 0 17.613-7.886 17.613-17.613 0-0.036 0-0.072 0-0.108v0.006-205.926z" />
<glyph unicode="&#xe91e;" d="M1006.387 50.995h-988.774c-0.001 0-0.003 0-0.005 0-9.727 0-17.613 7.886-17.613 17.613 0 0.144 0.002 0.288 0.005 0.431v-0.021 205.619h1024v-205.619c0.003-0.122 0.005-0.266 0.005-0.41 0-9.727-7.886-17.613-17.613-17.613-0.002 0-0.003 0-0.005 0v0z" />
<glyph unicode="&#xe91f;" d="M0 498.278h1024v-223.642h-1024v223.642z" />
<glyph unicode="&#xe920;" d="M0 727.040h1024v-682.701h-1024v682.701z" />
<glyph unicode="&#xe921;" d="M494.387 464.179l35.226-48.538 56.934 18.432-35.226-48.435 35.226-48.435-56.934 18.534-35.328-48.435 0.102 59.904-56.934 18.534 56.934 18.534v59.904z" />
<glyph unicode="&#xe922;" d="M398.438 264.499c-0.033 0-0.071 0-0.109 0-66.96 0-121.242 54.282-121.242 121.242s54.282 121.242 121.242 121.242c21.168 0 41.068-5.425 58.388-14.96l-0.627 0.316c-26.884 26.342-63.737 42.598-104.386 42.598-82.399 0-149.197-66.798-149.197-149.197s66.798-149.197 149.197-149.197c40.649 0 77.502 16.256 104.411 42.623l-0.025-0.024c-16.657-9.217-36.521-14.642-57.651-14.643v0z" />
<glyph unicode="&#xe923;" glyph-name="icon-menu-achived" d="M993.894 131.994c-0.095 1.13-0.313 2.175-0.642 3.168l0.028-0.096c-2.557 19.047-12.13 35.48-25.987 46.902l-0.125 0.1c15.888 13.37 25.914 33.266 25.914 55.504 0 34.064-23.527 62.634-55.217 70.346l-0.495 0.102v228.352l44.749 15.77c6.511 2.375 11.076 8.514 11.076 15.718s-4.565 13.343-10.96 15.681l-0.116 0.037-468.582 168.858c-1.691 0.632-3.644 0.997-5.683 0.997s-3.993-0.366-5.799-1.035l0.116 0.037-471.45-168.755c-6.51-2.446-11.059-8.62-11.059-15.856 0-0.006 0-0.011 0-0.017v0.001c0.036-7.204 4.631-13.325 11.045-15.631l0.116-0.037 170.598-59.904 23.757-291.328c1.024-66.048 142.029-100.659 281.293-100.659s280.064 34.611 281.19 100.557l26.624 292.045 89.702 31.642v-216.576c-32.24-7.729-55.833-36.307-55.833-70.395 0-22.278 10.077-42.203 25.921-55.464l0.113-0.092c-13.972-11.45-23.545-27.816-26.070-46.421l-0.042-0.375c-0.29-0.921-0.507-2-0.61-3.112l-0.005-0.062-10.24-102.4c-0.045-0.461-0.070-0.996-0.070-1.537 0-9.284 7.488-16.819 16.754-16.895h133.741c4.91 0.020 9.32 2.143 12.378 5.516l0.013 0.014c2.665 2.918 4.297 6.819 4.297 11.101 0 0.635-0.036 1.261-0.106 1.877l0.007-0.075zM508.109 718.95l418.714-150.938-418.714-147.866-421.683 147.866zM753.869 203.162c-0.023-0.215-0.035-0.464-0.035-0.717s0.013-0.502 0.038-0.748l-0.003 0.031c0-27.75-96.563-67.994-247.808-67.994s-247.501 40.243-247.501 67.994v1.331l-22.528 277.094 266.24-93.491c1.619-0.584 3.488-0.922 5.436-0.922 0.033 0 0.066 0 0.099 0h-0.005c1.981 0.007 3.881 0.344 5.652 0.959l-0.122-0.037 266.24 93.901zM882.176 237.568c0 21.547 17.467 39.014 39.014 39.014s39.014-17.467 39.014-39.014c0-21.547-17.467-39.014-39.014-39.014v0c-21.524 0.058-38.956 17.491-39.014 39.009v0.006zM871.936 44.237l8.192 81.92c0.047 0.46 0.074 0.995 0.074 1.536s-0.027 1.076-0.079 1.603l0.005-0.067c1.854 20.444 18.911 36.339 39.68 36.339s37.826-15.895 39.669-36.184l0.011-0.155c0.107-1.099 0.324-2.107 0.643-3.068l-0.028 0.098 8.192-81.92zM987.546-8.909h-133.734c-0.025 0-0.055 0-0.085 0-20.077 0-36.352 16.275-36.352 36.352 0 1.298 0.068 2.581 0.201 3.844l-0.013-0.158 10.24 102.4c0.242 1.948 0.565 3.651 0.985 5.315l-0.064-0.298c2.497 16.486 9.002 31.119 18.486 43.32l-0.157-0.209c-11.537 15.223-18.48 34.481-18.48 55.36 0 37.7 22.637 70.114 55.061 84.388l0.591 0.232v174.080l-51.2-18.125-25.702-277.914c-2.355-81.92-152.576-119.091-300.851-119.091s-298.803 36.864-300.954 119.296l-22.63 278.323-158.515 55.296c-14.259 5.167-24.262 18.593-24.262 34.355s10.004 29.188 24.009 34.275l0.254 0.081 471.552 168.755c3.656 1.364 7.88 2.153 12.288 2.153s8.632-0.789 12.538-2.234l-0.25 0.081 468.378-168.858c14.183-5.207 24.119-18.595 24.119-34.304s-9.936-29.097-23.866-34.223l-0.253-0.081-31.539-11.059v-200.294c33.14-14.454 55.884-46.931 55.884-84.72 0-20.836-6.914-40.057-18.574-55.493l0.168 0.233c9.328-11.992 15.833-26.624 18.265-42.596l0.064-0.515c0.391-1.455 0.682-3.167 0.814-4.923l0.006-0.095 10.24-102.4c0.119-1.106 0.187-2.388 0.187-3.686 0-20.077-16.275-36.352-36.352-36.352-0.030 0-0.060 0-0.090 0h0.005zM894.054 63.898h53.248l-5.837 58.573c-0.326 1.319-0.58 2.891-0.71 4.499l-0.007 0.109c-1.964 9.425-10.202 16.405-20.070 16.405s-18.106-6.98-20.047-16.271l-0.023-0.133c-0.158-1.743-0.412-3.315-0.763-4.849l0.046 0.241zM278.016 203.264c8.806-14.746 86.733-49.869 228.25-49.869s219.341 35.123 228.147 49.869c-0.024 0.261-0.037 0.564-0.037 0.87s0.013 0.61 0.040 0.909l-0.003-0.039 22.528 246.784-236.646-83.661c-3.598-1.314-7.752-2.073-12.083-2.073s-8.485 0.76-12.336 2.153l0.252-0.080-238.080 83.456 20.48-246.989zM278.016 203.878l642.765 52.941c-10.689 0-19.353-8.665-19.353-19.354s8.665-19.354 19.354-19.354c10.689 0 19.354 8.665 19.354 19.354 0 0.036 0 0.072 0 0.108v-0.006c-0.058 10.645-8.701 19.251-19.353 19.251-0.036 0-0.072 0-0.108 0h0.006zM145.408 568.218l362.701-127.181 360.038 127.181-360.038 129.843z" />
<glyph unicode="&#xe924;" glyph-name="icon-menu-bill" d="M512-117.961c277.225 0 501.961 224.735 501.961 501.961s-224.735 501.961-501.961 501.961c-277.225 0-501.961-224.735-501.961-501.961v0c0-277.225 224.735-501.961 501.961-501.961v0zM512 825.725c243.958 0 441.725-197.767 441.725-441.725s-197.767-441.725-441.725-441.725c-243.958 0-441.725 197.767-441.725 441.725v0 0c0.286 243.864 197.87 441.483 441.693 441.826h0.033zM512-128v0c-282.77 0-512 229.23-512 512s229.23 512 512 512c282.77 0 512-229.23 512-512v0c-0.74-282.472-229.528-511.26-511.929-512h-0.071zM512 875.922c-271.681 0-491.922-220.241-491.922-491.922s220.241-491.922 491.922-491.922c271.681 0 491.922 220.241 491.922 491.922v0c-0.342 271.543-220.378 491.579-491.888 491.922h-0.034zM512-67.765c-249.503 0-451.765 202.262-451.765 451.765s202.262 451.765 451.765 451.765v0 0c249.503 0 451.765-202.262 451.765-451.765s-202.262-451.765-451.765-451.765v0zM512 815.686c-238.414 0-431.686-193.273-431.686-431.686s193.273-431.686 431.686-431.686c238.414 0 431.686 193.273 431.686 431.686v0c-0.853 238.070-193.616 430.833-431.604 431.686h-0.082zM346.453 433.393c1.979 0.11 3.826 0.543 5.534 1.246l-0.113-0.041 45.377 16.665c6.334 1.416 11.865 3.281 17.122 5.645l-0.557-0.224c8.533 3.112 15.36 6.124 20.882 8.634v-54.714l-93.164-33.431c-6.574-2.54-11.151-8.81-11.151-16.148 0-0.182 0.003-0.363 0.008-0.544l-0.001 0.026v-8.533c0.597-8.939 7.994-15.963 17.031-15.963 0.048 0 0.096 0 0.143 0.001h-0.007c2.215 0.056 4.312 0.493 6.25 1.248l-0.126-0.043 72.383 25.801 9.136 3.614v-233.111c0-12.309 9.978-22.287 22.287-22.287v0h1.305c2.034-0.058 4.427-0.090 6.828-0.090 33.931 0 66.331 6.558 96.001 18.475l-1.734-0.615c32.098 12.373 59.723 29.35 83.62 50.451l-0.294-0.255c25.875 21.824 47.067 48.275 62.481 78.191l0.665 1.42c16.54 29.209 27.744 63.551 31.338 100.128l0.085 1.068c0.143 0.74 0.225 1.59 0.225 2.46s-0.082 1.72-0.238 2.544l0.013-0.085c-0.431 12.166-10.212 21.912-22.352 22.286l-0.035 0.001h-11.144c-0.033 0-0.071 0-0.11 0-11.531 0-21.017-8.757-22.169-19.984l-0.008-0.095c-1.074-14.777-3.463-28.474-7.078-41.664l0.352 1.507c-24.581-84.477-96.085-147.22-183.712-158.602l-1.11-0.118v217.951c1.395 1.014 3.002 2.044 4.668 2.982l0.252 0.13 152.195 54.513c6.554 2.413 11.144 8.603 11.144 15.866 0 0.034 0 0.068 0 0.102v-0.005 7.329c0 0 0 0 0 0 0 9.501-7.674 17.21-17.162 17.267h-0.005c-2.074-0.203-3.979-0.664-5.771-1.356l0.149 0.051-53.911-20.078-91.457-32.427v52.605l157.515 57.525c6.513 2.52 11.064 8.7 11.143 15.953v8.543c-0.488 9.155-7.956 16.413-17.152 16.565h-0.015c-2.238-0.148-4.323-0.614-6.272-1.355l0.148 0.049-145.468-52.605v110.933c0 12.309-9.978 22.287-22.287 22.287v0h-11.144c-12.309 0-22.287-9.978-22.287-22.287v0-130.51l-93.867-33.531c-6.513-2.52-11.064-8.7-11.143-15.953v-9.045c0.529-8.956 7.771-16.057 16.736-16.363l0.029-0.001zM465.518 101.095h-8.031c-17.853 0-32.326 14.473-32.326 32.326v0 218.554l-68.066-24.395c-2.734-1.067-5.896-1.723-9.201-1.806l-0.035-0.001c-0.078-0.001-0.169-0.001-0.261-0.001-14.335 0-26.071 11.127-27.041 25.216l-0.005 0.084v9.236c-0.004 0.166-0.006 0.361-0.006 0.557 0 11.564 7.215 21.443 17.389 25.381l0.186 0.063 86.538 31.624v32.125l-7.429-2.811-5.622-2.108c-3.357-1.431-7.378-2.741-11.53-3.713l-0.517-0.102-44.173-16.163c-2.42-0.96-5.222-1.606-8.147-1.802l-0.085-0.005h-1.104c-14.184 0.462-25.606 11.675-26.4 25.729l-0.003 0.072v10.039c0.125 11.539 7.336 21.363 17.482 25.335l0.187 0.064 87.341 31.122v123.081c0 17.853 14.473 32.326 32.326 32.326v0h11.144c17.853 0 32.326-14.473 32.326-32.326v0-97.079l132.016 47.787c2.702 1.049 5.827 1.703 9.091 1.806l0.044 0.001c0.042 0 0.092 0 0.142 0 14.662 0 26.645-11.472 27.463-25.93l0.003-0.072v-9.035c-0.137-11.508-7.295-21.31-17.382-25.334l-0.186-0.066-151.090-54.714v-31.624l78.105 27.708 53.71 20.078c2.447 0.939 5.281 1.583 8.233 1.801l0.099 0.006c0.15 0.003 0.326 0.005 0.503 0.005 15.068 0 27.295-12.159 27.406-27.2v-7.34c0-0.038 0-0.083 0-0.127 0-11.601-7.37-21.481-17.683-25.213l-0.187-0.059-150.588-53.911v-200.784c79.92 14.83 143.202 73.085 165.079 148.899l0.368 1.489c3.042 10.992 5.287 23.9 6.283 37.156l0.042 0.692c1.139 16.867 15.101 30.118 32.157 30.118 0.024 0 0.049 0 0.073 0h11.24c17.308-0.404 31.308-14.020 32.322-31.131l0.004-0.091c0.192-1.132 0.301-2.435 0.301-3.765s-0.109-2.633-0.32-3.903l0.019 0.138c-3.864-38.918-15.456-74.409-33.225-105.957l0.698 1.349c-16.716-32.422-38.676-59.8-65.064-82.1l-0.391-0.322c-24.4-21.67-52.903-39.403-84.097-51.824l-1.939-0.681c-28.995-11.69-62.616-18.472-97.822-18.472-0.127 0-0.254 0-0.381 0h0.020zM445.44 381.49v-247.969c0-6.764 5.484-12.248 12.248-12.248v0h1.305c2.105-0.065 4.582-0.101 7.067-0.101 32.548 0 63.623 6.304 92.072 17.757l-1.658-0.59c30.938 11.973 57.562 28.369 80.595 48.733l-0.281-0.244c24.964 20.963 45.388 46.422 60.202 75.239l0.635 1.36c15.971 28.16 26.727 61.297 30.043 96.598l0.075 0.983v3.715c-0.164 6.864-5.685 12.385-12.534 12.549h-10.958c-0.042 0.001-0.092 0.001-0.142 0.001-6.356 0-11.571-4.881-12.103-11.099l-0.003-0.045c-1.221-15.369-3.712-29.535-7.406-43.208l0.379 1.646c-25.565-88.499-100.373-154.275-192.092-166.226l-1.163-0.124-11.344-1.305v234.416l4.116 3.012c1.7 1.21 3.669 2.441 5.709 3.557l1.72 0.86 152.094 54.513c2.639 0.999 4.487 3.492 4.518 6.421v7.433c0 0.030 0.001 0.065 0.001 0.1 0 3.937-3.191 7.128-7.128 7.128 0 0 0 0-0.001 0v0l-2.108-0.602-53.81-20.078-105.010-37.547v74.089l164.141 60.235c2.668 1.071 4.518 3.636 4.518 6.633 0 0.033 0 0.066-0.001 0.098v-0.005 8.333c-0.416 3.668-3.487 6.496-7.225 6.525h-0.003c-0.995-0.175-1.872-0.419-2.712-0.737l0.102 0.034-158.921-57.826v125.289c0 6.764-5.484 12.248-12.248 12.248v0h-11.144c-6.764 0-12.248-5.484-12.248-12.248v0-137.638l-100.392-35.84c-2.649-1.092-4.486-3.641-4.518-6.622v-8.939c0.423-3.377 3.124-6.009 6.497-6.323l0.029-0.002h2.008l47.285 17.368h1.707l7.329 2.711 5.823 2.108c8.031 2.911 14.657 5.823 20.078 8.333l14.155 6.325v-77.202l-99.79-35.338c-2.673-1.101-4.521-3.686-4.521-6.702 0-0.079 0.001-0.158 0.004-0.236v0.011-8.835c0.507-3.37 3.382-5.924 6.854-5.924 0.026 0 0.051 0 0.077 0h-0.004c0.986 0.031 1.913 0.25 2.758 0.621l-0.048-0.019 81.318 29.315z" />
<glyph unicode="&#xe925;" glyph-name="icon-menu-calendar" d="M152.064 818.483h64.512v37.581c0.869 13.204 11.792 23.585 25.139 23.585s24.27-10.381 25.135-23.51l0.004-0.075v-37.581h484.352v37.581c0.869 13.204 11.792 23.585 25.139 23.585s24.27-10.381 25.135-23.51l0.004-0.075v-37.581h70.451c75.422-0.115 136.56-61.109 136.909-136.466v-658.772c-0.349-75.369-61.499-136.339-136.903-136.397h-720.082c-75.407 0.115-136.547 61.039-137.011 136.353v658.783c0.464 75.379 61.591 136.327 136.995 136.499h0.016zM266.752 768.307v-43.93c-0.869-13.204-11.792-23.585-25.139-23.585s-24.27 10.381-25.135 23.51l-0.004 0.075v43.93h-64.307c0 0 0 0-0.001 0-47.737 0-86.455-38.611-86.63-86.306v-45.483h893.44v45.466c-0.29 47.737-39.056 86.323-86.834 86.323-0.073 0-0.145 0-0.218 0h-70.543v-43.93c-0.869-13.204-11.792-23.585-25.139-23.585s-24.27 10.381-25.135 23.51l-0.004 0.075v43.93h-484.352zM958.874 586.445h-893.44v-563.2c0.175-47.656 38.847-86.221 86.527-86.221 0.036 0 0.072 0 0.109 0h719.866c47.634 0.115 86.238 38.612 86.528 86.193v0.028zM871.936-128h-720.077c-0.061 0-0.133 0-0.205 0-83.612 0-151.421 67.665-151.654 151.223v658.761c0.233 83.637 68.087 151.347 151.756 151.347 0.036 0 0.072 0 0.108 0h49.556v22.733c1.109 21.28 18.633 38.114 40.090 38.114s38.981-16.834 40.086-38.016l0.004-0.098v-22.733h454.656v22.733c1.109 21.28 18.633 38.114 40.090 38.114s38.981-16.834 40.086-38.016l0.004-0.098v-22.733h55.501c0 0 0.001 0 0.001 0 83.69 0 151.567-67.698 151.858-151.32v-658.767c-0.291-83.593-68.123-151.245-151.756-151.245-0.036 0-0.073 0-0.109 0h0.006zM151.654 803.84c-67.276-0.058-121.798-54.58-121.856-121.85v-658.745c0.117-67.268 54.674-121.754 121.958-121.754 0.036 0 0.072 0 0.108 0h720.071c0.031 0 0.067 0 0.103 0 67.191 0 121.681 54.382 121.856 121.532v658.961c-0.175 67.167-54.664 121.549-121.856 121.549-0.036 0-0.072 0-0.108 0h-85.498v52.531c0 5.655-4.585 10.24-10.24 10.24s-10.24-4.585-10.24-10.24v0-52.531h-514.15v52.531c0 5.655-4.585 10.24-10.24 10.24s-10.24-4.585-10.24-10.24v0-52.531zM871.936-78.029h-719.872c-0.031 0-0.067 0-0.103 0-55.88 0-101.201 45.213-101.375 101.052v0.017l2.15 593.92h921.6v-593.92c-0.23-55.87-45.575-101.073-101.478-101.073-0.324 0-0.648 0.002-0.972 0.005h0.049zM80.384 581.734v-558.49c0-39.588 32.092-71.68 71.68-71.68v0h719.872c39.588 0 71.68 32.092 71.68 71.68v0 558.49zM974.336 621.67h-923.75v60.314c0.175 55.913 45.541 101.171 101.478 101.171 0.036 0 0.072 0 0.109 0h79.15v-58.778c0-5.655 4.585-10.24 10.24-10.24s10.24 4.585 10.24 10.24v0 58.778h514.662v-58.778c0-5.655 4.585-10.24 10.24-10.24s10.24 4.585 10.24 10.24v0 58.778h84.992c0.274 0.003 0.598 0.004 0.922 0.004 55.938 0 101.306-45.261 101.478-101.159v-0.017zM80.486 641.229h863.642v40.96c0 39.588-32.092 71.68-71.68 71.68v0h-55.603v-28.979c-1.109-21.28-18.633-38.114-40.090-38.114s-38.981 16.834-40.086 38.016l-0.004 0.098v28.467h-455.066v-28.979c0-22.113-17.926-40.038-40.038-40.038s-40.038 17.926-40.038 40.038v0 28.979h-49.357c-39.588 0-71.68-32.092-71.68-71.68v0zM174.899 529.715h117.043c0.030 0 0.067 0 0.103 0 13.82 0 25.030-11.174 25.088-24.98v-77.728c-0.058-13.868-11.314-25.088-25.19-25.088 0 0 0 0 0 0h-117.043c-13.856 0-25.088 11.232-25.088 25.088v0 77.722c0.058 13.812 11.268 24.986 25.088 24.986 0 0 0 0 0 0v0zM267.059 479.539h-66.97v-27.546h66.662zM453.632 529.715h117.043c13.688-0.173 24.724-11.281 24.781-24.98v-77.727c-0.058-13.868-11.314-25.088-25.19-25.088 0 0 0 0 0 0h-116.634c-13.856 0-25.088 11.232-25.088 25.088v0 77.722c0.058 13.812 11.268 24.986 25.088 24.986 0 0 0 0 0 0v0zM545.792 479.539h-66.97v-27.546h66.662zM732.365 529.715h117.043c0 0 0 0 0 0 13.82 0 25.030-11.174 25.088-24.98v-77.728c0-13.856-11.232-25.088-25.088-25.088h-117.043c0 0 0 0 0 0-13.876 0-25.132 11.22-25.19 25.082v77.728c0.058 13.812 11.268 24.986 25.088 24.986 0.036 0 0.072 0 0.108 0h-0.006zM824.525 479.539h-67.072v-27.546h66.662zM174.899 330.752h117.043c0 0 0 0 0 0 13.876 0 25.132-11.22 25.19-25.082v-77.728c-0.058-13.812-11.268-24.986-25.088-24.986-0.036 0-0.072 0-0.108 0h-117.037c0 0 0 0 0 0-13.82 0-25.030 11.174-25.088 24.98v77.728c0 13.856 11.232 25.088 25.088 25.088v0zM267.059 280.576h-66.97v-27.648h66.662zM174.899 131.686h117.043c0 0 0.001 0 0.001 0 13.912 0 25.19-11.278 25.19-25.19 0-0.072 0-0.144-0.001-0.216v0.011-77.619c-0.23-13.735-11.419-24.781-25.187-24.781-0.001 0-0.002 0-0.004 0h-117.043c-13.856 0-25.088 11.232-25.088 25.088v77.312c-0.001 0.091-0.002 0.199-0.002 0.307 0 13.856 11.232 25.088 25.088 25.088 0.001 0 0.001 0 0.002 0v0zM267.059 81.51h-66.97v-27.648h66.662zM453.632 330.752h117.043c13.7-0.23 24.725-11.362 24.781-25.083v-77.727c-0.058-13.812-11.268-24.986-25.088-24.986-0.036 0-0.072 0-0.108 0h-116.628c0 0 0 0 0 0-13.82 0-25.030 11.174-25.088 24.98v77.728c0 13.856 11.232 25.088 25.088 25.088v0zM545.792 280.576h-66.97v-27.648h66.662zM453.632 131.686h117.043c13.735-0.23 24.782-11.419 24.782-25.187 0-0.073 0-0.146-0.001-0.219v0.011-77.619c-0.226-13.594-11.187-24.555-24.759-24.781h-117.064c-13.856 0-25.088 11.232-25.088 25.088v77.312c-0.001 0.091-0.002 0.199-0.002 0.307 0 13.856 11.232 25.088 25.088 25.088 0.001 0 0.001 0 0.002 0v0zM545.792 81.51h-66.97v-27.648h66.662zM732.365 330.752h117.043c13.832-0.058 25.030-11.256 25.088-25.082v-77.728c-0.058-13.812-11.268-24.986-25.088-24.986 0 0 0 0 0 0h-117.043c-0.030 0-0.067 0-0.103 0-13.82 0-25.030 11.174-25.088 24.98v77.728c0.058 13.868 11.314 25.088 25.19 25.088 0 0 0 0 0 0v0zM824.525 280.576h-67.072v-27.648h66.662zM732.365 131.686h117.043c13.856 0 25.088-11.232 25.088-25.088v0-77.619c0-13.856-11.232-25.088-25.088-25.088v0h-117.043c0 0 0 0 0 0-13.876 0-25.132 11.22-25.19 25.082v77.318c-0.001 0.061-0.001 0.133-0.001 0.205 0 13.912 11.278 25.19 25.19 25.19 0 0 0.001 0 0.001 0v0zM824.525 81.51h-67.072v-27.648h66.662z" />
<glyph unicode="&#xe926;" glyph-name="icon-menu-contact" d="M931.328 855.040h-417.178c-0.030 0-0.066 0-0.102 0-49.881 0-90.317-40.436-90.317-90.317 0-0.036 0-0.072 0-0.108v0.006-220.57c0.167-49.455 39.922-89.569 89.222-90.316l0.071-0.001v-54.886c0.116-25.12 15.467-46.625 37.283-55.762l0.401-0.149c6.43-2.74 13.911-4.332 21.764-4.332 0.665 0 1.327 0.011 1.987 0.034l-0.096-0.003c16.864 0.044 32.091 7.014 42.995 18.214l97.907 97.907h218.419c0.030 0 0.067 0 0.103 0 49.824 0 90.214 40.39 90.214 90.214 0 0.072 0 0.144 0 0.216v-0.011 218.419c-1.676 50.243-42.319 90.457-92.578 91.442l-0.094 0.001zM958.259 543.027c-0.338-15.337-12.712-27.675-28.031-27.955h-230.017c-8.902-0.006-16.932-3.735-22.618-9.715l-0.012-0.013-102.4-101.069v80.691c0 16.966-13.754 30.72-30.72 30.72v0h-29.286c-15.325 0.282-27.673 12.631-27.955 27.929v219.982c0.282 15.325 12.631 27.673 27.929 27.955h417.409c15.346-0.28 27.72-12.618 28.057-27.923l0.001-0.032v-220.57zM631.398 653.824c0-24.375-19.76-44.134-44.134-44.134s-44.134 19.76-44.134 44.134c0 24.375 19.76 44.134 44.134 44.134s44.134-19.76 44.134-44.134zM766.874 653.824c0-24.375-19.76-44.134-44.134-44.134s-44.134 19.76-44.134 44.134c0 24.375 19.76 44.134 44.134 44.134s44.134-19.76 44.134-44.134zM901.427 653.824c0-24.375-19.76-44.134-44.134-44.134s-44.134 19.76-44.134 44.134c0 24.375 19.76 44.134 44.134 44.134s44.134-19.76 44.134-44.134zM654.848 169.677l-84.992 67.789c-17.4 14.096-39.807 22.631-64.208 22.631-0.107 0-0.214 0-0.321 0h0.017c-0.017 0-0.038 0-0.058 0-31.773 0-60.248-14.117-79.495-36.422l-0.114-0.135c-4.301-5.427-7.475-8.602-10.24-12.902-23.455 15.78-43.882 33.118-62.205 52.467l-0.157 0.167c-19.67 18.378-37.134 38.671-52.239 60.71l-0.804 1.242c3.853 3.408 8.057 6.767 12.425 9.913l0.478 0.327c23 19.126 37.536 47.75 37.536 79.768 0 24.905-8.794 47.756-23.447 65.617l0.145-0.182-68.915 84.992c-19.386 24.151-48.836 39.535-81.887 39.731h-0.033c-15.194-0.258-29.587-3.395-42.752-8.885l0.768 0.284c-35.533-15.053-84.992-58.061-94.72-68.813-65.536-65.638-35.43-162.509-10.752-212.992 31.232-65.638 87.142-139.878 161.382-214.118 71.066-70.963 207.667-190.464 326.042-190.464 0.901-0.021 1.962-0.033 3.025-0.033 38.154 0 72.755 15.209 98.073 39.895l-0.029-0.029c10.24 10.752 53.76 59.187 68.915 94.72 5.203 12.193 8.228 26.379 8.228 41.271 0 33.578-15.377 63.564-39.474 83.301l-0.19 0.151zM627.917 70.758c-9.626-23.654-44.134-64.614-54.886-75.366-13.815-13.355-32.657-21.584-53.422-21.584-1.235 0-2.464 0.029-3.685 0.087l0.173-0.006c-71.68 0-178.586 68.915-281.907 172.134-134.451 134.451-211.968 276.48-150.63 337.92 22.136 20.744 46.829 39.242 73.421 54.855l1.945 1.056c4.747 2.023 10.264 3.222 16.056 3.277h0.021c0.293 0.008 0.637 0.013 0.982 0.013 12.866 0 24.25-6.344 31.194-16.075l0.079-0.117 67.789-84.992c5.664-6.969 9.095-15.952 9.095-25.736 0-12.47-5.573-23.639-14.363-31.151l-0.056-0.047c-17.203-15.155-29.082-25.907-32.256-29.082-25.907-25.805 11.776-79.667 68.813-136.602 44.134-44.134 87.142-77.517 116.224-77.517 0.605-0.054 1.308-0.085 2.018-0.085 7.41 0 14.035 3.364 18.43 8.648l0.032 0.039c3.277 3.277 14.029 15.053 29.082 32.256 7.496 8.808 18.383 14.536 30.618 15.151l0.102 0.004c9.719-0.261 18.636-3.485 25.937-8.796l-0.133 0.092 84.992-67.686c10.756-7.872 17.662-20.45 17.662-34.642 0-5.783-1.147-11.298-3.226-16.331l0.104 0.284z" />
<glyph unicode="&#xe927;" glyph-name="icon-menu-distrubuter" d="M534.016 105.779h-43.827c-0.184-0.003-0.401-0.004-0.618-0.004-25.958 0-47.002 21.043-47.002 47.002 0 0.217 0.001 0.435 0.004 0.651v-0.033 239.411c-0.003 0.184-0.004 0.401-0.004 0.618 0 25.958 21.043 47.002 47.002 47.002 0.217 0 0.435-0.001 0.651-0.004h43.794c0.153 0.002 0.335 0.003 0.516 0.003 25.958 0 47.002-21.043 47.002-47.002 0-0.217-0.001-0.434-0.004-0.65v0.033-239.411c0.003-0.184 0.004-0.4 0.004-0.617 0-25.958-21.043-47.002-47.002-47.002-0.181 0-0.363 0.001-0.544 0.003h0.028zM534.016 512.205h-43.827c-0.184-0.003-0.401-0.004-0.618-0.004-25.958 0-47.002 21.043-47.002 47.002 0 0.217 0.001 0.435 0.004 0.651v-0.033 43.11c-0.003 0.184-0.004 0.401-0.004 0.618 0 25.958 21.043 47.002 47.002 47.002 0.217 0 0.435-0.001 0.651-0.004h43.794c0.123 0.001 0.269 0.002 0.415 0.002 25.902 0 46.899-20.997 46.899-46.899 0-0.253-0.002-0.505-0.006-0.757v0.038-43.52c0.001-0.092 0.001-0.2 0.001-0.309 0-25.902-20.997-46.899-46.899-46.899-0.144 0-0.289 0.001-0.433 0.002h0.022zM512-128c-282.77 0-512 229.23-512 512s229.23 512 512 512c282.77 0 512-229.23 512-512v0c0-282.77-229.23-512-512-512v0zM512 806.912c-0.030 0-0.066 0-0.102 0-233.624 0-423.014-189.39-423.014-423.014s189.39-423.014 423.014-423.014c233.624 0 423.014 189.39 423.014 423.014 0 0.036 0 0.072 0 0.107v-0.005c0 0.030 0 0.066 0 0.102 0 233.511-189.298 422.81-422.81 422.81-0.036 0-0.072 0-0.108 0h0.006z" />
<glyph unicode="&#xe928;" glyph-name="icon-menu-faq" d="M512-113.459c-0.030 0-0.066 0-0.102 0-274.569 0-497.152 222.583-497.152 497.152s222.583 497.152 497.152 497.152c274.569 0 497.152-222.583 497.152-497.152 0-0.036 0-0.072 0-0.108v0.006c-0.349-274.372-222.677-496.7-497.016-497.050h-0.034zM512 818.381c-0.030 0-0.066 0-0.102 0-240.241 0-434.995-194.754-434.995-434.995s194.754-434.995 434.995-434.995c240.241 0 434.995 194.754 434.995 434.995v0c0 0.061 0 0.133 0 0.205 0 240.287-194.646 435.113-434.865 435.404h-0.028zM512-128c-282.77 0-512 229.23-512 512s229.23 512 512 512c282.77 0 512-229.23 512-512v0c-0.349-282.629-229.37-511.65-511.966-512h-0.034zM512 866.202c-0.030 0-0.066 0-0.102 0-266.313 0-482.202-215.889-482.202-482.202s215.889-482.202 482.202-482.202c266.313 0 482.202 215.889 482.202 482.202v0c-0.291 266.159-215.948 481.852-482.066 482.202h-0.034zM512-65.638c-0.031 0-0.066 0-0.102 0-248.498 0-449.946 201.448-449.946 449.946s201.448 449.946 449.946 449.946c248.498 0 449.946-201.448 449.946-449.946 0-0.036 0-0.072 0-0.109v0.006c-0.291-248.365-201.493-449.64-449.803-450.048h-0.040zM512 804.25c-231.871 0-419.84-187.969-419.84-419.84s187.969-419.84 419.84-419.84c231.871 0 419.84 187.969 419.84 419.84v0c-0.466 231.643-188.181 419.286-419.807 419.635h-0.033zM544.256 178.995c0-17.136-13.891-31.027-31.027-31.027s-31.027 13.891-31.027 31.027c0 17.136 13.891 31.027 31.027 31.027s31.027-13.891 31.027-31.027zM513.126 133.018c-25.393 0-45.978 20.585-45.978 45.978s20.585 45.978 45.978 45.978c25.393 0 45.978-20.585 45.978-45.978v0c0-25.393-20.585-45.978-45.978-45.978v0zM513.126 195.174c-8.936 0-16.179-7.244-16.179-16.179s7.244-16.179 16.179-16.179c8.936 0 16.179 7.244 16.179 16.179v0c0 8.936-7.244 16.179-16.179 16.179v0zM513.126 290.816c-0.054 0-0.119-0.001-0.183-0.001-14.2 0-26.15 9.635-29.669 22.723l-0.049 0.215c-0.717 2.56-1.126 45.056-1.126 47.923 0 40.96 36.557 72.806 72.294 98.202 11.279 10.317 18.326 25.1 18.326 41.529 0 4.927-0.634 9.706-1.825 14.26l0.087-0.391c-6.758 21.197-33.69 33.792-55.808 33.792v0c-0.856 0.039-1.86 0.061-2.869 0.061-28.502 0-52.907-17.537-63.016-42.409l-0.164-0.455c-4.517-11.936-15.852-20.268-29.133-20.268-17.16 0-31.071 13.911-31.071 31.071 0 3.879 0.711 7.593 2.010 11.017l-0.071-0.214c19.288 49.191 66.345 83.389 121.389 83.389 1.064 0 2.126-0.013 3.184-0.038l-0.157 0.003c44.954 0 98.816-26.419 114.995-76.902 2.97-9.871 4.68-21.214 4.68-32.956 0-37.379-17.325-70.712-44.383-92.406l-0.233-0.181c-41.574-29.491-46.080-43.008-46.080-47.411s0-45.875-1.229-48.64c-4.093-12.805-15.887-21.914-29.81-21.914-0.032 0-0.064 0-0.096 0h0.005zM513.126 275.661c-21.085 0.011-38.85 14.212-44.262 33.571l-0.077 0.323c-1.536 5.837-1.638 51.2-1.638 51.814 0 48.128 39.834 82.739 78.643 110.285 7.482 7.669 12.097 18.164 12.097 29.737 0 3.473-0.416 6.849-1.2 10.081l0.060-0.291c-4.506 14.029-25.088 23.347-41.574 23.347-0.718 0.034-1.56 0.054-2.406 0.054-22.404 0-41.594-13.757-49.586-33.284l-0.129-0.357c-6.723-17.655-23.509-29.971-43.172-29.971-5.712 0-11.182 1.039-16.23 2.939l0.317-0.105c-11.547 4.332-20.673 12.859-25.687 23.679l-0.117 0.282c-2.647 5.642-4.192 12.253-4.192 19.225 0 5.745 1.049 11.245 2.966 16.319l-0.105-0.318c21.378 54.968 73.87 93.218 135.297 93.218 1.107 0 2.211-0.012 3.312-0.037l-0.164 0.003c50.278 0 110.797-30.003 129.126-87.347 3.473-11.273 5.473-24.233 5.473-37.659 0-42.166-19.726-79.724-50.453-103.951l-0.281-0.214c-32.87-23.245-38.912-34.202-39.834-36.352 0.030-2.035 0.047-4.438 0.047-6.844 0-15.616-0.724-31.064-2.14-46.31l0.147 1.954c-5.578-19.567-23.244-33.673-44.223-33.792h-0.014zM497.869 316.621c2.198-6.5 8.242-11.096 15.36-11.096s13.162 4.596 15.326 10.982l0.034 0.114c0 6.963 0.922 39.117 0.922 45.363 0 9.626 5.427 26.317 52.429 59.597 23.311 19.168 38.063 48.011 38.063 80.299 0 9.983-1.41 19.637-4.042 28.773l0.181-0.732c-14.029 43.725-61.44 66.662-100.762 66.662-0.821 0.021-1.788 0.033-2.758 0.033-48.757 0-90.451-30.236-107.357-72.979l-0.272-0.781c-0.626-1.644-0.988-3.545-0.988-5.53 0-2.453 0.553-4.777 1.541-6.854l-0.041 0.097c1.739-3.922 4.945-6.927 8.904-8.363l0.108-0.034c1.621-0.603 3.495-0.952 5.449-0.952 6.829 0 12.663 4.257 14.993 10.263l0.037 0.11c12.415 30.998 42.204 52.493 77.013 52.493 1.15 0 2.294-0.023 3.432-0.070l-0.163 0.005c27.034 0 60.826-15.462 69.939-44.134 1.512-5.496 2.38-11.806 2.38-18.319 0-21.433-9.407-40.669-24.318-53.805l-0.079-0.068c-32.666-23.142-66.048-51.2-66.048-86.016-0.102-5.325 0.205-38.093 0.717-45.056zM559.309 361.677v0z" />
<glyph unicode="&#xe929;" glyph-name="icon-menu-general" d="M847.77 98.816c-50.094 78.616-125.016 137.579-213.558 166.327l-2.814 0.79c46.772 36.183 76.595 92.322 76.595 155.427 0 108.244-87.749 195.994-195.994 195.994s-195.994-87.749-195.994-195.994c0-63.105 29.823-119.244 76.145-155.092l0.451-0.335c-91.371-29.505-166.304-88.477-215.415-165.512l-0.956-1.605c-65.378 76.445-105.165 176.476-105.165 285.8 0 243.521 197.413 440.934 440.934 440.934s440.934-197.413 440.934-440.934c0-109.324-39.786-209.356-105.67-286.405l0.505 0.605zM376.73 420.25c0 0.091 0 0.199 0 0.307 0 74.595 60.471 135.066 135.066 135.066s135.066-60.471 135.066-135.066c0-74.522-60.354-134.949-134.849-135.065h-0.011c-74.463 0.058-134.833 60.319-135.066 134.736v0.023zM512-57.037c-112.821 0.136-215.636 42.871-293.247 112.98l0.383-0.34c0.819 1.024 1.946 1.536 2.662 2.662 59.392 100.294 167.041 166.488 290.15 166.488s230.759-66.194 289.297-164.933l0.853-1.555c0.734-1.079 1.544-2.018 2.447-2.858l0.010-0.009c-77.225-69.482-179.924-111.99-292.55-112.026h-0.007zM512 886.374c-277.114 0-501.76-224.646-501.76-501.76s224.646-501.76 501.76-501.76c277.114 0 501.76 224.646 501.76 501.76v0c-0.465 276.927-224.833 501.295-501.715 501.76h-0.045zM512-128.102c-282.77 0-512 229.23-512 512s229.23 512 512 512c282.77 0 512-229.23 512-512v0c-0.349-282.629-229.37-511.65-511.966-512h-0.034zM512 875.418c-271.459 0-491.52-220.061-491.52-491.52s220.061-491.52 491.52-491.52c271.459 0 491.52 220.061 491.52 491.52v0c-0.291 271.424-220.128 491.406-491.47 491.93h-0.050zM512-67.482c-115.298 0.14-220.411 43.636-299.936 115.055l0.416-0.367-6.861 6.144 5.53 7.373c0.764 0.996 1.605 1.87 2.534 2.641l0.026 0.021c61.292 102.724 171.849 170.456 298.226 170.456 126.753 0 237.591-68.135 297.888-169.778l0.878-1.6c0.719-0.514 1.329-1.124 1.827-1.82l0.016-0.023 5.632-7.373-6.963-6.246c-79.101-70.773-184.101-114.045-299.207-114.074h-0.006zM232.755 56.525c74.492-64.336 172.266-103.525 279.194-103.525s204.701 39.189 279.742 103.988l-0.549-0.463c-58.089 95.124-161.339 157.655-279.194 157.655s-221.104-62.531-278.381-156.225l-0.813-1.43zM213.094 62.874v0zM177.357 81.818l-8.806 10.24c-66.625 78.059-107.162 180.139-107.162 291.688 0 248.837 201.723 450.56 450.56 450.56s450.56-201.723 450.56-450.56c0-111.549-40.537-213.629-107.683-292.314l0.522 0.626-8.806-10.24-7.27 11.674c-48.924 76.562-121.934 134.013-208.192 162.142l-2.752 0.776-18.227 5.734 15.155 11.776c44.395 34.33 72.704 87.605 72.704 147.492 0 102.702-83.256 185.958-185.958 185.958s-185.958-83.256-185.958-185.958c0-59.887 28.309-113.163 72.276-147.174l0.428-0.318 15.053-11.776-18.227-5.734c-89.013-28.836-162.012-86.308-209.908-161.354l-0.933-1.564zM651.366 269.722c81.869-30.468 149.31-83.807 196.429-152.224l0.896-1.376c58.727 73.022 94.259 166.867 94.259 269.011 0 238.036-192.966 431.002-431.002 431.002s-431.002-192.966-431.002-431.002c0-102.144 35.532-195.988 94.91-269.848l-0.651 0.837c48.015 69.793 115.456 123.132 194.505 152.676l2.82 0.924c-40.96 37.37-66.583 90.949-66.662 150.514v0.014c-0.033 1.368-0.051 2.979-0.051 4.594 0 113.843 92.288 206.131 206.131 206.131s206.131-92.288 206.131-206.131c0-1.615-0.019-3.226-0.056-4.833l0.004 0.239c-0.025-59.589-25.662-113.186-66.5-150.382l-0.162-0.146zM512 275.251c-0.061 0-0.133 0-0.205 0-80.137 0-145.101 64.964-145.101 145.101s64.964 145.101 145.101 145.101c80.137 0 145.101-64.964 145.101-145.101 0-0.036 0-0.072 0-0.108v0.005c-0.116-79.998-64.907-144.824-144.879-144.998h-0.017zM512 545.28c-0.030 0-0.066 0-0.102 0-69.052 0-125.030-55.978-125.030-125.030s55.978-125.030 125.030-125.030c69.052 0 125.030 55.978 125.030 125.030v0c-0.058 68.993-55.943 124.914-124.917 125.030h-0.011z" />
<glyph unicode="&#xe92a;" glyph-name="icon-menu-holiday" d="M927.949 688.435h-251.187v124.314c0 17.701-14.35 32.051-32.051 32.051v0h-265.523c-17.701 0-32.051-14.35-32.051-32.051v0-124.314h-251.187c-0.031 0-0.067 0-0.103 0-52.827 0-95.671-42.737-95.846-95.523v-573.457c0-0.030 0-0.066 0-0.102 0-52.991 42.958-95.949 95.949-95.949 0 0 0 0 0 0h832c53.048 0 96.051 43.004 96.051 96.051v0 573.44c-0.233 52.815-43.101 95.539-95.948 95.539-0.036 0-0.073 0-0.109 0h0.006zM821.76 624.435v-636.928h-619.52v636.928zM411.136 780.8h201.626v-92.16h-201.626zM64 19.456v573.44c0 17.645 14.304 31.949 31.949 31.949v0h42.291v-636.928h-42.291c-17.479 0.055-31.661 14.094-31.948 31.512v0.027zM960 19.456c0-17.701-14.35-32.051-32.051-32.051v0h-42.189v637.030h42.189c0.031 0 0.068 0 0.105 0 17.501 0 31.715-14.072 31.946-31.518v-0.022zM506.47 98.611l157.798-27.034c0.814-0.098 1.757-0.153 2.714-0.153s1.899 0.056 2.826 0.164l-0.113-0.011c0.143-0.002 0.311-0.004 0.48-0.004 15.749 0 28.845 11.359 31.542 26.33l0.029 0.195 65.536 384c0.319 1.691 0.502 3.636 0.502 5.623 0 15.757-11.48 28.832-26.532 31.318l-0.184 0.025-157.594 27.136c-1.62 0.29-3.484 0.456-5.388 0.456-15.764 0-28.87-11.381-31.55-26.374l-0.029-0.194-66.56-384.512c-0.273-1.57-0.43-3.378-0.43-5.222 0-15.844 11.533-28.994 26.662-31.513l0.186-0.026zM603.648 476.774l94.72-15.974-54.886-320-94.515 15.974z" />
<glyph unicode="&#xe92b;" glyph-name="icon-menu-improvement" d="M839.885 733.389c-0.381 10.419-8.73 18.768-19.113 19.148l-0.035 0.001h-133.12v19.046c-0.327 10.349-8.604 18.662-18.908 19.045l-0.036 0.001h-65.434c-13.908 34.36-47.004 58.156-85.658 58.156s-71.749-23.797-85.436-57.539l-0.221-0.617h-66.048c-10.34-0.384-18.617-8.697-18.943-19.016l-0.001-0.031v-19.046h-133.12c-10.208-0.77-18.286-8.919-18.941-19.089l-0.003-0.060zM517.222 809.779c0.138 0.001 0.301 0.002 0.465 0.002 26.289 0 48.378-17.979 54.643-42.311l0.086-0.391c2.21-8.274 9.534-14.309 18.304-14.54l0.026-0.001h59.29v-28.672h-265.216v28.672h59.29c8.754 0.279 16.027 6.298 18.196 14.405l0.031 0.136c6.311 24.719 28.38 42.703 54.649 42.703 0.191 0 0.383-0.001 0.574-0.003h-0.029zM516.096 554.906c-2.737-0.006-5.341-0.57-7.706-1.585l0.128 0.049-340.787-135.066c-8.999-3.961-15.183-12.769-15.258-23.030v-0.010c0.133-10.142 6.314-18.809 15.095-22.569l8.968-3.441v-81.92c-7.358-6.616-12.015-16.111-12.185-26.696v-0.030c-0.033-0.578-0.051-1.254-0.051-1.934 0-20.19 16.367-36.557 36.557-36.557s36.557 16.367 36.557 36.557c0 0.68-0.019 1.356-0.055 2.027l0.004-0.093c-0.048 10.767-4.73 20.43-12.152 27.106l-0.033 0.030v62.566l48.742-19.558v-119.296c1.137-19.017 11.381-35.42 26.394-45.021l0.23-0.138c15.43-11.2 33.247-20.446 52.371-26.836l1.389-0.402c47.042-16.313 101.258-25.733 157.675-25.733 1.952 0 3.901 0.011 5.847 0.034l-0.296-0.003c1.793-0.023 3.911-0.037 6.031-0.037 56.464 0 110.727 9.423 161.302 26.781l-3.494-1.042c20.475 6.79 38.258 16.035 54.224 27.63l-0.566-0.392c15.279 9.703 25.54 26.126 26.617 45.007l0.007 0.151v119.296l106.189 42.086c8.539 4.065 14.336 12.624 14.336 22.537 0 0.033 0 0.065 0 0.098v-0.005c-0.083 10.104-6.078 18.788-14.691 22.77l-0.157 0.065-340.992 135.066c-2.474 1.022-5.346 1.615-8.357 1.615-0.663 0-1.319-0.029-1.967-0.085l0.084 0.006zM517.222 504.32l274.842-108.851-274.534-108.442-274.842 108.442zM322.662 311.501l186.163-73.523c2.599-1.021 5.608-1.612 8.755-1.612s6.157 0.592 8.923 1.67l-0.167-0.057 186.163 73.523v-98.509c-13.299-12.236-29.364-21.688-47.134-27.303l-0.891-0.243c-42.677-14.682-91.853-23.159-143.009-23.159-1.383 0-2.765 0.006-4.146 0.019l0.211-0.001c-1.264-0.013-2.758-0.020-4.253-0.020-51.188 0-100.396 8.478-146.296 24.107l3.195-0.945c-18.634 5.83-34.671 15.286-48.006 27.621l0.083-0.075zM517.53 106.291c-1.583-0.018-3.453-0.028-5.325-0.028-57.375 0-112.514 9.569-163.91 27.199l3.551-1.059c-21.22 7.020-39.65 16.615-56.179 28.662l0.575-0.4c-17.052 11.12-28.41 29.736-29.384 51.060l-0.005 0.14v114.278l-34.509 13.824v-49.050c7.556-7.848 12.211-18.535 12.211-30.31 0-24.121-19.532-43.681-43.643-43.725h-0.004c-23.988 0.396-43.329 19.737-43.724 43.687v0.038c0.061 11.696 4.693 22.298 12.2 30.121l-0.014-0.015v73.83l-3.994 1.741c-11.644 4.807-19.702 16.047-19.763 29.176v0.008c0.090 13.238 8.115 24.58 19.553 29.513l0.21 0.081 340.787 134.963c3.028 1.244 6.539 1.991 10.217 2.048h0.023c0.487 0.027 1.057 0.042 1.63 0.042 4.053 0 7.928-0.767 11.485-2.164l-0.214 0.074 340.992-134.963c11.631-5.035 19.645-16.364 19.763-29.578v-0.015c-0.091-13.128-8.136-24.354-19.553-29.107l-0.21-0.077-101.99-40.141v-114.688c-0.966-21.491-12.375-40.124-29.241-51.048l-0.25-0.152c-15.944-11.694-34.38-21.294-54.199-27.86l-1.404-0.403c-47.478-16.322-102.185-25.745-159.092-25.745-2.317 0-4.631 0.016-6.941 0.047l0.35-0.004zM218.112 360.755l62.976-25.19v-124.109c0-14.643 7.373-26.931 23.859-39.526 14.706-10.696 31.662-19.582 49.85-25.813l1.35-0.402c46.424-15.988 99.918-25.219 155.569-25.219 1.864 0 3.725 0.010 5.584 0.031l-0.283-0.002c1.596-0.019 3.481-0.029 5.368-0.029 55.663 0 109.17 9.232 159.073 26.247l-3.469-1.027c19.538 6.658 36.491 15.542 51.763 26.603l-0.563-0.389c16.486 12.595 23.859 24.883 23.859 39.526v124.109l110.694 43.93c6.092 2.829 10.24 8.895 10.24 15.93 0 0.016 0 0.031 0 0.047v-0.002c0.001 0.057 0.001 0.125 0.001 0.193 0 7.107-4.137 13.247-10.134 16.145l-0.107 0.047-339.968 134.963c-1.734 0.672-3.742 1.062-5.84 1.062-0.395 0-0.787-0.014-1.175-0.041l0.052 0.003c-0.014 0-0.031 0-0.048 0-1.752 0-3.425-0.338-4.957-0.953l0.090 0.032-341.504-135.066c-6.37-2.831-10.735-9.096-10.752-16.382v-0.002c0.076-7.16 4.437-13.283 10.638-15.931l0.114-0.043 13.21-5.222v-89.6l-2.253-2.15c-6.044-5.406-9.83-13.229-9.83-21.936 0-16.231 13.158-29.389 29.389-29.389s29.389 13.158 29.389 29.389c0 8.707-3.786 16.529-9.802 21.911l-0.028 0.025-2.355 2.15zM517.53 155.341c-1.2-0.011-2.618-0.018-4.038-0.018-51.957 0-101.908 8.59-148.51 24.426l3.249-0.959c-19.939 6.097-37.094 16.205-51.274 29.457l0.074-0.069-1.843 2.048v111.821l196.198-77.824c1.844-0.679 3.974-1.072 6.195-1.072s4.351 0.393 6.323 1.113l-0.128-0.041 195.789 77.824v-111.718l-1.229-1.946c-13.955-13.5-31.166-23.724-50.335-29.375l-0.865-0.219c-43.385-14.879-93.372-23.469-145.366-23.469-1.491 0-2.98 0.007-4.468 0.021l0.227-0.002zM329.83 215.962c12.162-10.421 26.607-18.583 42.445-23.62l0.87-0.239c41.885-14.295 90.137-22.546 140.316-22.546 1.43 0 2.859 0.007 4.285 0.020l-0.218-0.002c1.187-0.011 2.59-0.018 3.995-0.018 50.275 0 98.623 8.251 143.764 23.473l-3.17-0.928c16.668 5.241 31.081 13.369 43.379 23.896l-0.166-0.139v85.197l-176.435-69.734c-3.359-1.311-7.249-2.071-11.315-2.071s-7.956 0.76-11.533 2.145l0.218-0.074-176.435 69.734zM517.53 279.347l-2.56 1.024-291.533 115.098 294.093 116.531 294.195-116.531zM261.53 395.469l256-100.762 256 100.762-256 101.274zM657.408 716.698h-279.654v42.906h66.355c5.469 0.254 10 3.987 11.447 9.025l0.022 0.088c7.311 27.893 32.293 48.138 62.003 48.138s54.693-20.245 61.904-47.692l0.1-0.446c1.403-5.188 5.962-8.982 11.443-9.215l0.025-0.001h66.355zM391.885 730.931h251.29v14.438h-52.122c-12.259 0.329-22.435 8.864-25.255 20.296l-0.038 0.184c-5.808 21.573-25.196 37.191-48.23 37.191s-42.422-15.618-48.15-36.842l-0.080-0.349c-2.816-11.602-12.96-20.14-25.154-20.479l-0.037-0.001h-52.224zM188.109 733.389c0.17 7.2 3.195 13.662 7.981 18.324l0.006 0.006c4.605 4.753 11.002 7.746 18.099 7.884h125.261v11.981c0.333 14.306 11.815 25.824 26.075 26.214l0.037 0.001h61.44c16.31 34.1 50.535 57.235 90.163 57.235s73.853-23.135 89.905-56.636l0.259-0.599h61.44c14.253-0.445 25.679-11.943 26.009-26.183l0.001-0.031v-11.981h125.952c14.297-0.39 25.779-11.908 26.111-26.183l0.001-0.031h-14.234c-0.362 6.431-5.458 11.563-11.841 11.979l-0.038 0.002h-139.571v26.214c-0.407 6.411-5.478 11.517-11.837 11.978l-0.042 0.002h-70.758l-1.843 4.198c-13.128 31.391-43.587 53.046-79.104 53.046s-65.976-21.655-78.894-52.483l-0.21-0.564-1.946-4.198h-70.656c-6.42-0.418-11.517-5.55-11.877-11.948l-0.001-0.033v-26.214h-139.878c-3.196-0.134-6.044-1.521-8.084-3.681l-0.005-0.006c-2.184-2.11-3.575-5.030-3.686-8.274l-0.001-0.020zM760.832-87.757h-497.766c-145.253 0.175-262.949 117.907-263.066 263.157v308.030c0.116 145.261 117.813 262.993 263.049 263.168h497.783c145.274-0.175 262.993-117.895 263.168-263.152v-308.035c-0.175-145.274-117.895-262.993-263.152-263.168h-0.016zM263.066 670.72c-103.39-0.117-187.173-83.899-187.29-187.279v-308.030c0.233-103.323 83.959-187.013 187.273-187.187h497.783c103.403 0.175 187.173 83.981 187.29 187.381v307.825c-0.117 103.39-83.899 187.173-187.279 187.29h-0.011z" />
<glyph unicode="&#xe92c;" glyph-name="icon-menu-library" d="M919.237 561.329v-467.988c0-21.563 0-43.225 0-64.788v-0.886l42.338 42.338c-16.313 1.258-35.328 1.976-54.51 1.976-125.556 0-243.934-30.732-348.022-85.084l4.157 1.976c-28.443-14.44-52.155-28.503-74.9-43.89l2.432 1.551h42.929c-45.973 30.434-98.708 57.463-154.412 78.433l-5.49 1.813c-58.875 22.004-127.088 37.306-198.038 42.862l-2.626 0.165c-16.598 1.388-35.923 2.179-55.434 2.179s-38.836-0.791-57.947-2.343l2.513 0.164 42.338-42.338v468.086c0 21.563 0 43.225 0 64.788v0.886l-42.338-42.338c16.327 1.327 35.345 2.084 54.54 2.084 33.439 0 66.342-2.296 98.56-6.739l-3.733 0.422-11.52 1.083c68.087-9.249 129.71-26.498 187.498-51.023l-4.753 1.792-9.846 4.234c45.7-19.98 84.495-41.175 121.202-65.289l-3.048 1.88c6.069-3.6 13.378-5.727 21.184-5.727 7.874 0 15.243 2.165 21.543 5.932l-0.192-0.106c33.827 22.676 72.646 43.891 113.361 61.557l4.792 1.852-9.846-4.234c52.674 22.611 113.885 39.818 177.76 48.699l3.803 0.433c-3.742 0-7.483-1.083-11.225-1.477 28.484 4.021 61.387 6.318 94.826 6.318 19.195 0 38.213-0.757 57.026-2.241l-2.486 0.158c23.209 0.228 41.936 19.095 41.936 42.337 0 11.69-4.737 22.273-12.397 29.934v0c-7.772 7.238-18.068 11.856-29.432 12.402l-0.106 0.004c-16.355 1.265-35.417 1.986-54.647 1.986-124.88 0-242.659-30.402-346.339-84.208l4.187 1.977c-29.312-15.015-53.534-29.336-76.86-44.894l2.817 1.768h42.831c-20.677 13.489-41.354 26.092-62.917 37.612-26.932 14.502-59.408 29.071-92.947 41.444l-5.514 1.781c-58.606 21.866-126.514 37.094-197.139 42.663l-2.64 0.167c-16.598 1.388-35.923 2.179-55.434 2.179s-38.836-0.791-57.947-2.343l2.513 0.164c-11.508-0.339-21.864-5.005-29.552-12.419l0.013 0.013c-7.472-7.631-12.16-18.015-12.405-29.492l-0.001-0.047v-467.988c0-21.563 0-43.225 0-64.788v-0.886c0-21.563 19.692-44.012 42.338-42.338 16.327 1.327 35.345 2.084 54.54 2.084 33.439 0 66.342-2.296 98.56-6.739l-3.733 0.422q-5.612 0.886-11.225 1.477c68.14-9.494 129.735-26.971 187.471-51.722l-4.727 1.802-9.846 4.234c45.563-19.622 84.376-40.799 120.964-65.063l-2.811 1.752c6.094-3.735 13.472-5.947 21.366-5.947s15.272 2.212 21.547 6.050l-0.181-0.103c33.909 22.929 72.746 44.127 113.571 61.57l4.583 1.741-9.846-4.234c52.921 22.936 114.413 40.411 178.607 49.475l3.842 0.445-11.225-1.477c28.484 4.021 61.387 6.318 94.826 6.318 19.195 0 38.213-0.757 57.026-2.241l-2.486 0.158c11.541 0.148 21.954 4.859 29.54 12.408l-0.002-0.002c7.472 7.631 12.16 18.015 12.405 29.492l0.001 0.047v468.086c0 21.563 0 43.225 0 64.788v0.886c0 23.437-19 42.437-42.437 42.437s-42.437-19-42.437-42.437v0zM586.043 736.985c-0.073-5.773-0.465-11.372-1.158-16.877l0.075 0.729c0.492 3.742 1.083 7.582 1.477 11.225-1.547-10.706-4.266-20.359-8.072-29.443l0.294 0.79 4.234 9.846c-4.366-10.036-9.475-18.683-15.491-26.604l0.229 0.315 6.597 8.566c-6.119-7.967-12.984-14.894-20.622-20.881l-0.252-0.19 8.566 6.597c-7.592-5.87-16.251-10.957-25.525-14.876l-0.764-0.287 9.846 4.234c-8.29-3.541-17.938-6.292-27.993-7.796l-0.659-0.081 11.028 1.182c-4.835-0.658-10.423-1.034-16.098-1.034s-11.264 0.376-16.74 1.104l0.642-0.070 11.225-1.477c-10.695 1.53-20.348 4.285-29.406 8.164l0.753-0.287 9.846-4.234c-10.074 4.282-18.76 9.364-26.693 15.385l0.305-0.222 8.566-6.597c-8.047 6.297-15.069 13.319-21.165 21.1l-0.201 0.266 6.695-8.566c-5.832 7.602-10.945 16.254-14.955 25.495l-0.307 0.795 4.234-9.846c-3.393 8.38-6.013 18.144-7.41 28.298l-0.073 0.65c0-3.643 1.083-7.483 1.477-11.225-0.658 4.835-1.034 10.423-1.034 16.098s0.376 11.264 1.104 16.74l-0.070-0.642c0-3.742-1.083-7.483-1.477-11.225 1.645 10.622 4.427 20.162 8.273 29.138l-0.297-0.781-4.234-9.846c4.368 10.074 9.478 18.754 15.495 26.709l-0.233-0.321-6.695-8.566c6.349 8.002 13.364 15.017 21.101 21.163l0.265 0.203-8.566-6.695c7.63 5.831 16.314 10.944 25.587 14.953l0.801 0.308-9.846-4.234c8.151 3.177 17.658 5.627 27.53 6.923l0.63 0.068-11.225-1.477c4.835 0.658 10.423 1.034 16.098 1.034s11.264-0.376 16.74-1.104l-0.642 0.070q-5.612 1.477-11.225 1.477c10.706-1.547 20.359-4.266 29.443-8.072l-0.79 0.294-9.846 4.234c10.035-4.337 18.685-9.448 26.592-15.483l-0.302 0.221-8.369 7.188c8.047-6.297 15.069-13.319 21.165-21.1l0.201-0.266-6.597 8.566c5.651-7.622 10.606-16.311 14.467-25.571l0.302-0.817-4.234 9.846c3.404-8.060 6.113-17.465 7.684-27.25l0.094-0.713c0 3.742-1.083 7.483-1.477 11.225 0.69-4.648 1.085-10.013 1.085-15.47 0-0.204-0.001-0.407-0.002-0.611v0.031c0.259-11.504 4.903-21.875 12.32-29.551l-0.012 0.013c7.677-7.666 18.277-12.406 29.984-12.406 0.016 0 0.033 0 0.049 0h-0.003c23.186 0.435 41.861 19.144 42.24 42.302v0.036c0 0.055 0 0.121 0 0.187 0 33.054-10.276 63.709-27.808 88.942l0.338-0.513c-9.912 14.038-21.353 26.105-34.299 36.353l-0.36 0.275c-12.829 9.893-27.615 18.145-43.543 24.043l-1.159 0.376c-15.474 5.555-33.329 8.765-51.933 8.765-48.094 0-91.176-21.457-120.196-55.321l-0.179-0.214c-5.507-6.535-10.855-13.762-15.739-21.317l-0.507-0.837c-4.155-7.137-8.225-15.565-11.664-24.311l-0.447-1.289c-5.3-13.684-8.824-29.516-9.825-46.030l-0.021-0.443c-0.199-2.967-0.313-6.432-0.313-9.923 0-62.201 36.048-115.982 88.392-141.592l0.93-0.411c7.339-3.497 16.162-6.848 25.276-9.518l1.309-0.328c7.923-2.104 17.467-3.839 27.225-4.853l0.837-0.070c4.554-0.461 9.841-0.725 15.19-0.725 11.742 0 23.188 1.268 34.209 3.675l-1.055-0.193c62.42 13.678 110.441 62.788 122.328 124.744l0.158 0.992c1.543 8.491 2.57 18.438 2.849 28.572l0.006 0.277c-0.221 23.239-19.001 42.019-42.219 42.24h-0.021c-23.185-0.486-41.853-19.153-42.338-42.293l-0.001-0.046zM469.957 443.668v-467.889c0-21.662 0-43.323 0-64.886v-0.886c0-23.383 18.956-42.338 42.338-42.338s42.338 18.956 42.338 42.338v0 467.889c0 21.563 0 43.225 0 64.886v0.788c0 23.383-18.956 42.338-42.338 42.338s-42.338-18.956-42.338-42.338v0z" />
<glyph unicode="&#xe92d;" glyph-name="icon-menu-loading" d="M512-127.795c-282.77 0-512 229.23-512 512s229.23 512 512 512c282.77 0 512-229.23 512-512v0c-0.349-282.629-229.37-511.65-511.966-512h-0.034zM512 775.782c-216.262 0-391.578-175.315-391.578-391.578s175.315-391.578 391.578-391.578c216.262 0 391.578 175.315 391.578 391.578v0c-0.35 216.081-175.481 391.14-391.555 391.373h-0.022z" />
<glyph unicode="&#xe92e;" glyph-name="icon-menu-logout" d="M566.272 529.306c22.961 0 41.574 18.613 41.574 41.574v0 138.752c0 68.96-55.874 124.87-124.82 124.928h-358.405c-68.864-0.175-124.621-56.040-124.621-124.928 0 0 0 0 0 0v0-651.981c0-68.96 55.874-124.87 124.82-124.928h358.405c68.598 0.522 124.006 56.253 124.006 124.925 0 0.001 0 0.002 0 0.004v0 125.133c0.033 0.617 0.051 1.339 0.051 2.065 0 23.017-18.659 41.677-41.677 41.677s-41.677-18.659-41.677-41.677c0-0.726 0.019-1.449 0.055-2.166l-0.004 0.101v-124.826c0-23.017-18.659-41.677-41.677-41.677v0h-357.478c-22.973 0.058-41.574 18.695-41.574 41.677 0 0 0 0 0 0v0 651.674c0 0 0 0 0 0 0 22.981 18.601 41.618 41.569 41.677h358.406c23.017 0 41.677-18.659 41.677-41.677v0-138.752c0 0 0 0 0-0.001 0-22.889 18.497-41.458 41.358-41.574h0.011zM267.878 376.73c0 0 0 0 0 0 0-22.981 18.601-41.618 41.569-41.677h571.705l-154.214-152.269c-7.238-7.472-11.699-17.671-11.699-28.911 0-22.961 18.613-41.574 41.574-41.574 11.037 0 21.069 4.301 28.513 11.318l-0.021-0.019 226.304 223.027c7.549 7.528 12.219 17.938 12.219 29.44s-4.671 21.912-12.218 29.439l-0.001 0.001-226.304 223.539c-7.504 7.391-17.811 11.955-29.184 11.955-22.975 0-41.6-18.625-41.6-41.6 0-11.602 4.75-22.095 12.41-29.64l154.22-151.455h-571.699c-0.030 0-0.066 0-0.103 0-22.904 0-41.472-18.568-41.472-41.472 0-0.036 0-0.072 0-0.108v0.006z" />
<glyph unicode="&#xe92f;" glyph-name="icon-menu-organisation" d="M512 876.308c96.142-0.785 173.777-78.905 173.777-175.158 0-85.81-61.703-157.208-143.161-172.246l-1.078-0.165v-174.474l193.182-140.997c26.751 17.832 59.634 28.456 94.998 28.456 0.11 0 0.22 0 0.33 0h-0.017c0.146 0 0.32 0.001 0.493 0.001 96.522 0 174.769-78.247 174.769-174.769s-78.247-174.769-174.769-174.769c-96.522 0-174.769 78.247-174.769 174.769 0 39.542 13.132 76.016 35.272 105.3l-0.318-0.44-178.708 130.462-178.708-130.462c21.61-28.679 34.61-64.907 34.61-104.172 0-96.142-77.938-174.080-174.080-174.080s-174.080 77.938-174.080 174.080c0 96.142 77.938 174.080 174.080 174.080 0.017 0 0.034 0 0.051 0h-0.002c0.11 0 0.241 0 0.372 0 35.345 0 68.208-10.624 95.571-28.852l-0.632 0.396 193.083 140.997v174.474c-82.536 15.204-144.238 86.602-144.238 172.412 0 96.253 77.635 174.372 173.702 175.157h0.075zM512.492 584.665c48.246 0 114.314 44.8 114.314 116.578-0.944 62.735-52.021 113.229-114.892 113.229-63.46 0-114.905-51.445-114.905-114.905s51.445-114.905 114.905-114.905c0.203 0 0.407 0.001 0.61 0.002h-0.031zM193.871 182.154c-0.175 0.001-0.383 0.002-0.591 0.002-63.786 0-115.495-51.709-115.495-115.495s51.709-115.495 115.495-115.495c63.786 0 115.494 51.708 115.495 115.494v0c0 0.117 0.001 0.256 0.001 0.394 0 63.5-51.421 114.99-114.895 115.101h-0.011zM830.031 182.154c-0.205 0.001-0.447 0.002-0.689 0.002-63.786 0-115.495-51.709-115.495-115.495s51.709-115.495 115.495-115.495c63.786 0 115.494 51.708 115.495 115.493v0c0 0.088 0 0.192 0 0.296 0 63.485-51.353 114.976-114.785 115.199h-0.021z" />
<glyph unicode="&#xe930;" glyph-name="icon-menu-organisation-chart" d="M62.434 578.958c4.484 0.857 9.641 1.347 14.913 1.347s10.429-0.49 15.429-1.428l-0.516 0.080c13.934-2.888 26.086-9.177 35.968-17.964l-0.078 0.068 64.92-152.407c24.755-50.405-55.773-89.476-79.534-35.89l-16.106 39.071c-38.972-200.525 88.482-348.856 283.737-415.366 39.037-13.805 84.054-21.782 130.935-21.782 116.379 0 221.277 49.157 295.064 127.84l0.204 0.22c39.17 41.159 102.698-18.293 62.335-63.13-89.506-94.386-215.811-153.114-355.833-153.114-57.73 0-113.127 9.983-164.562 28.316l3.423-1.064c-76.75 26.147-149.126 62.434-202.315 116.418-30.322 30.819-110.552 105.084-139.781 231.046-21.574 92.955-6.363 132.623-1.193 176.267 6.102 53.485 25.045 101.604 53.648 142.464l-0.659-0.993zM708.847 255.95c0 0.067 0 0.147 0 0.226 0 80.242-47.532 149.382-115.975 180.8l-1.238 0.509c25.992 22.925 42.302 56.305 42.302 93.495 0 68.743-55.727 124.471-124.471 124.471s-124.471-55.727-124.471-124.471c0-37.189 16.31-70.569 42.167-93.378l0.135-0.117c-69.628-31.949-117.114-101.062-117.114-181.265 0-0.095 0-0.191 0-0.286v0.015c0-23.661 12.129-56.171 70.785-77.347 36.045-12.653 77.602-19.962 120.867-19.962 2.7 0 5.394 0.028 8.081 0.085l-0.401-0.007c147.237 0.398 199.332 52.492 199.332 97.23zM509.515 606.496c41.613-0.226 75.259-34.011 75.259-75.656 0-41.784-33.873-75.657-75.657-75.657s-75.657 33.873-75.657 75.657c0 0.035 0 0.069 0 0.104v-0.005c0.056 41.742 33.907 75.558 75.657 75.558 0.14 0 0.28 0 0.419-0.001h-0.022zM509.515 207.832c-88.68 0-150.518 25.252-150.518 48.019 0 83.129 67.389 150.518 150.518 150.518s150.518-67.389 150.518-150.518v0c0-22.667-61.838-47.919-150.518-47.919zM960.373 188.943c-4.484-0.857-9.641-1.347-14.913-1.347s-10.429 0.49-15.429 1.428l0.516-0.080c-13.901 2.886-26.022 9.175-35.866 17.961l0.075-0.066-65.516 152.308c-24.755 50.405 55.773 89.973 79.534 35.89l16.106-38.972c39.27 200.724-88.084 348.856-283.439 415.466-39.002 13.783-83.98 21.747-130.818 21.747-116.397 0-221.306-49.184-295.079-127.902l-0.206-0.222c-39.17-41.159-102.798 18.293-62.335 63.13 89.477 94.404 215.767 153.145 355.776 153.145 57.752 0 113.169-9.994 164.616-28.348l-3.422 1.065c76.75-26.147 149.126-62.434 202.414-116.418 29.825-30.72 110.552-105.084 139.781-231.046 21.474-92.955 6.363-132.623 1.094-176.267-6.071-53.477-24.981-101.598-53.55-142.468l0.66 0.997z" />
<glyph unicode="&#xe931;" glyph-name="icon-menu-other" d="M406.528 698.47v0c1.827 56.819 48.326 102.186 105.421 102.186s103.594-45.366 105.417-102.019l0.004-0.167h286.72c66.507 0 120.422-53.915 120.422-120.422 0-0.036 0-0.072 0-0.108v0.006-496.947c-0.058-66.484-53.938-120.364-120.417-120.422h-783.775c-66.451 0-120.32 53.869-120.32 120.32 0 0.036 0 0.072 0 0.108v-0.006 496.947c0 0.030 0 0.066 0 0.102 0 66.507 53.915 120.422 120.422 120.422v0zM406.528 592.998v45.261h-286.106c-33.266-0.058-60.211-27.039-60.211-60.314 0 0 0 0 0 0v0-496.947c0-0.030 0-0.066 0-0.102 0-33.197 26.912-60.109 60.109-60.109 0 0 0 0 0 0h783.258c0.091 0 0.199-0.001 0.307-0.001 33.254 0 60.211 26.957 60.211 60.211 0 0 0 0.001 0 0.001v0 496.947c0 0.030 0 0.066 0 0.102 0 33.218-26.899 60.153-60.103 60.211h-286.624v-45.261c16.627 0 30.106-13.479 30.106-30.106s-13.479-30.106-30.106-30.106v0h-210.842c-16.627 0-30.106 13.479-30.106 30.106s13.479 30.106 30.106 30.106v0zM557.158 592.998v105.574c-1.18 24.053-20.97 43.109-45.21 43.109s-44.029-19.055-45.205-43.003l-0.004-0.105v-105.574zM512 336.998c16.627 0 30.106-13.479 30.106-30.106s-13.479-30.106-30.106-30.106h-331.366c-16.627 0-30.106 13.479-30.106 30.106s13.479 30.106 30.106 30.106v0zM512 442.47c16.627 0 30.106-13.479 30.106-30.106s-13.479-30.106-30.106-30.106h-331.366c-16.627 0-30.106 13.479-30.106 30.106s13.479 30.106 30.106 30.106v0zM512 231.629c16.627 0 30.106-13.479 30.106-30.106s-13.479-30.106-30.106-30.106h-210.842c-16.627 0-30.106 13.479-30.106 30.106s13.479 30.106 30.106 30.106v0zM737.792 171.11c-74.877 0-135.578 60.7-135.578 135.578s60.7 135.578 135.578 135.578c74.877 0 135.578-60.7 135.578-135.578 0-0.036 0-0.072 0-0.108v0.006c0-74.821-60.654-135.475-135.475-135.475-0.036 0-0.072 0-0.108 0h0.006zM737.792 231.322c0.030 0 0.066 0 0.102 0 41.624 0 75.366 33.743 75.366 75.366s-33.743 75.366-75.366 75.366c-41.624 0-75.366-33.743-75.366-75.366 0-0.036 0-0.072 0-0.108v0.006c0.175-41.435 33.804-74.957 75.263-74.957 0 0 0 0 0.001 0v0z" />
<glyph unicode="&#xe932;" glyph-name="icon-menu-achived1" d="M987.648-8.909h-133.837c-20.069 0.010-36.335 16.281-36.335 36.352 0 1.298 0.068 2.581 0.201 3.844l-0.013-0.158 10.24 102.4c0.229 1.967 0.553 3.706 0.982 5.403l-0.061-0.283c2.497 16.486 9.002 31.119 18.486 43.32l-0.157-0.209c-11.537 15.223-18.48 34.481-18.48 55.36 0 37.7 22.637 70.114 55.061 84.388l0.591 0.232v174.080l-51.2-18.125-25.395-278.835c-2.458-81.92-152.678-119.091-300.954-119.091s-298.803 36.864-300.954 119.296l-22.938 278.835-158.515 55.603c-14.259 5.167-24.262 18.593-24.262 34.355s10.004 29.188 24.009 34.275l0.254 0.081 471.552 168.755c3.672 1.363 7.913 2.152 12.339 2.152s8.667-0.789 12.592-2.233l-0.253 0.081 467.968-168.858c14.183-5.207 24.119-18.595 24.119-34.304s-9.936-29.097-23.866-34.223l-0.253-0.081-31.539-11.059v-200.294c33.014-14.507 55.652-46.92 55.652-84.62 0-20.88-6.944-40.138-18.648-55.591l0.167 0.23c9.352-11.981 15.862-26.62 18.267-42.603l0.063-0.508c0.356-1.367 0.679-3.069 0.9-4.804l0.022-0.213 10.24-102.4c0.115-1.088 0.181-2.35 0.181-3.628 0-9.413-3.568-17.993-9.425-24.461l0.028 0.031c-6.549-7.558-16.115-12.352-26.804-12.493h-0.024zM894.054 63.898h53.555l-5.837 58.573c-0.38 1.358-0.637 2.935-0.715 4.558l-0.002 0.050c-1.964 9.425-10.202 16.405-20.070 16.405s-18.106-6.98-20.047-16.271l-0.023-0.133c0-1.536 0-3.174-0.717-4.608zM278.323 203.264c8.806-14.746 86.733-49.869 228.147-49.869s219.341 35.123 228.147 49.869c0 0.614 0 1.126 0 1.741l22.426 246.784-236.646-83.661c-3.614-1.313-7.786-2.073-12.134-2.073s-8.52 0.759-12.389 2.153l0.255-0.080-237.978 83.456 20.48-246.989s-0.307-0.922-0.307-1.331zM278.323 203.878l642.765 52.941c-0.030 0-0.066 0-0.102 0-10.689 0-19.354-8.665-19.354-19.354s8.665-19.354 19.354-19.354c10.689 0 19.354 8.665 19.354 19.354 0 0.036 0 0.072 0 0.108v-0.006c-0.058 10.645-8.7 19.252-19.353 19.252-0.072 0-0.144 0-0.216-0.001h0.011zM145.51 568.218l362.701-127.181 360.038 127.181-360.038 129.843z" />
<glyph unicode="&#xe933;" glyph-name="icon-menu-personal" d="M512-128c-282.77 0-512 229.23-512 512s229.23 512 512 512c282.77 0 512-229.23 512-512v0c0-282.77-229.23-512-512-512v0zM512 806.912c-0.030 0-0.066 0-0.102 0-233.624 0-423.014-189.39-423.014-423.014s189.39-423.014 423.014-423.014c233.624 0 423.014 189.39 423.014 423.014 0 0.036 0 0.072 0 0.107v-0.005c0 0.030 0 0.066 0 0.102 0 233.511-189.298 422.81-422.81 422.81-0.036 0-0.072 0-0.108 0h0.006zM743.526 208.282c0 0.015 0 0.032 0 0.050 0 93.102-55.197 173.311-134.651 209.69l-1.438 0.59c30.232 26.651 49.203 65.464 49.203 108.709 0 79.911-64.78 144.691-144.691 144.691s-144.691-64.78-144.691-144.691c0-43.245 18.971-82.058 49.045-108.572l0.158-0.137c-80.874-37.016-136.055-117.225-136.090-210.325v-0.004c0-27.443 14.234-65.229 81.92-89.805 41.532-14.485 89.406-22.851 139.235-22.851 3.575 0 7.139 0.043 10.694 0.129l-0.527-0.010c171.315 0 231.834 60.518 231.834 112.538zM512 615.629c48.58 0 87.962-39.382 87.962-87.962s-39.382-87.962-87.962-87.962c-48.58 0-87.962 39.382-87.962 87.962v0 0c0 48.58 39.382 87.962 87.962 87.962v0zM512 152.474c-103.014 0-174.899 29.286-174.899 55.808 2.366 94.756 79.742 170.668 174.848 170.668s172.482-75.911 174.844-170.449l0.004-0.219c0-26.522-71.782-55.91-174.797-55.91z" />
<glyph unicode="&#xe934;" glyph-name="icon-menu-promotion" d="M917.197 44.646l-142.848 232.858 25.088 7.27 5.12 1.434c17.101 4.915 34.406 10.24 39.526 18.227s1.024 25.19-3.072 41.677c-3.754 10.75-5.922 23.143-5.922 36.042 0 6.511 0.552 12.893 1.613 19.101l-0.094-0.666c6.988 18.775 17.836 34.695 31.66 47.437l0.084 0.076c11.571 12.493 23.040 24.986 23.040 34.304s-12.493 24.781-24.883 39.834c-13.364 13.925-24.035 30.553-31.098 48.967l-0.339 1.004c-1.019 5.646-1.602 12.145-1.602 18.779 0 12.779 2.161 25.052 6.138 36.476l-0.236-0.778c3.994 16.486 8.090 33.28 2.867 41.677s-22.426 13.312-39.629 18.227c-19.941 3.99-37.504 12.192-52.417 23.668l0.296-0.218c-12.684 13.565-22.222 30.233-27.35 48.735l-0.195 0.826c-5.734 15.872-11.469 31.642-19.763 35.84s-25.498 0-42.598-4.096c-12.363-4.253-26.609-6.708-41.429-6.708-6.19 0-12.281 0.428-18.243 1.257l0.689-0.078c-19.631 6.026-36.494 16.107-50.325 29.331l0.047-0.045c-13.312 10.854-26.829 21.811-37.069 21.811-16.179 0-45.773-22.426-64-36.352-7.28-6.59-15.842-11.928-25.246-15.579l-0.559-0.191c-5.208-0.728-11.225-1.144-17.339-1.144-14.82 0-29.070 2.442-42.369 6.947l0.93-0.274c-17.101 4.198-34.202 8.397-42.701 4.096s-14.029-20.48-19.763-35.84c-5.265-19.398-14.774-36.139-27.51-49.839l0.067 0.073c-14.604-11.408-32.152-19.773-51.295-23.815l-0.827-0.146c-17.101-4.813-34.406-10.24-39.526-18.227s-1.024-25.19 3.072-41.677c3.754-10.75 5.922-23.143 5.922-36.042 0-6.511-0.552-12.893-1.613-19.101l0.094 0.666c-6.952-18.338-17.419-33.939-30.676-46.653l-0.044-0.042c-12.595-14.438-25.702-29.389-25.702-40.96 0-9.421 11.469-21.914 23.040-34.406 13.913-12.8 24.789-28.68 31.568-46.574l0.278-0.837c1.071-5.787 1.683-12.445 1.683-19.247 0-12.643-2.116-24.792-6.012-36.112l0.233 0.78c-3.994-16.486-8.090-33.28-2.867-41.677 3.067-4.036 7.162-7.142 11.898-8.949l0.185-0.062c7.245-3.201 16.005-6.247 25.037-8.623l1.28-0.286c3.192-0.893 5.984-2.189 8.508-3.858l-0.111 0.069c3.505-2.323 6.363-5.345 8.431-8.885l0.068-0.127c1.757-3.039 2.794-6.685 2.794-10.573 0-2.484-0.423-4.869-1.201-7.088l0.046 0.15c-0.743-2.264-1.715-4.23-2.922-6.026l0.055 0.087-126.669-207.36 86.426-3.379c14.026-0.925 26.917-5.028 38.202-11.59l-0.417 0.224c11.768-6.209 21.518-14.779 28.912-25.145l0.169-0.25 46.182-69.53 131.994 216.371v0.614c3.784 4.308 8.887 7.376 14.675 8.572l0.173 0.030c1.386 0.263 2.98 0.413 4.609 0.413 6.006 0 11.535-2.044 15.929-5.474l-0.057 0.043c6.561-5.465 14-10.249 21.991-14.061l0.639-0.275c4.376-2.264 9.505-3.738 14.938-4.090l0.114-0.006c5.007 0.347 9.588 1.902 13.537 4.373l-0.123-0.072c7.482 4.469 13.94 9.101 19.981 14.208l-0.218-0.18c3.909 3.243 8.83 5.395 14.226 5.93l0.11 0.009c0.9 0.125 1.939 0.196 2.996 0.196 9.212 0 17.156-5.43 20.804-13.265l0.059-0.141 132.096-211.866 46.080 69.53c7.498 10.409 17.058 18.856 28.13 24.87l0.439 0.218c10.851 6.262 23.702 10.325 37.414 11.249l0.269 0.015 86.426 3.482zM836.198 254.771l117.76-191.693c3.771-5.813 6.188-12.822 6.65-20.36l0.006-0.12c0.020-0.431 0.031-0.937 0.031-1.445 0-6.137-1.646-11.89-4.52-16.84l0.086 0.161c-3.345-5.702-8.075-10.267-13.74-13.322l-0.187-0.092c-6.279-3.445-13.74-5.517-21.674-5.632h-0.035l-87.962-3.686c-6.99-0.688-13.354-2.845-18.952-6.158l0.213 0.117c-5.921-3.034-10.854-7.213-14.668-12.283l-0.078-0.108-46.899-70.758c-4.023-6.257-9.361-11.334-15.652-14.937l-0.22-0.116c-5.359-3.031-11.768-4.817-18.594-4.817-0.195 0-0.39 0.001-0.584 0.004h0.029c-6.979 0.129-13.464 2.131-19.007 5.521l0.166-0.094c-6.373 3.962-11.576 9.23-15.347 15.461l-0.116 0.206-121.856 198.451c-3.379-2.253-6.861-4.506-10.24-6.451-9.79-5.876-21.55-9.456-34.125-9.727l-0.076-0.001c-12.025 0.365-23.278 3.311-33.34 8.3l0.469-0.21c-6.362 2.897-11.702 5.836-16.799 9.118l0.517-0.312-122.573-200.294c-3.885-6.435-9.129-11.68-15.364-15.452l-0.201-0.113c-5.378-3.296-11.863-5.298-18.806-5.427l-0.036-0.001c-0.159-0.002-0.346-0.004-0.534-0.004-6.787 0-13.166 1.747-18.711 4.815l0.199-0.101c-6.466 3.782-11.79 8.844-15.763 14.876l-0.109 0.177-47.002 70.758c-3.934 5.171-8.898 9.349-14.608 12.278l-0.24 0.112c-5.357 3.17-11.69 5.295-18.458 5.926l-0.179 0.013-88.064 3.482c-10.156 0.185-19.486 3.577-27.056 9.203l0.125-0.089c-7.941 6.001-13.039 15.403-13.107 25.999v0.625c0.021 4.141 0.693 8.118 1.921 11.843l-0.077-0.271c1.306 3.918 2.9 7.304 4.835 10.458l-0.124-0.218 118.067 193.229c-5.12 1.741-10.24 3.584-14.95 5.734-12.388 5.317-22.512 13.925-29.541 24.732l-0.155 0.254c-13.312 21.709-7.373 46.080-1.536 70.144 2.992 8.513 4.721 18.328 4.721 28.548 0 2.639-0.115 5.251-0.341 7.832l0.024-0.335c-5.687 12.039-13.338 22.244-22.648 30.645l-0.084 0.075c-16.794 18.227-33.28 36.352-33.28 60.314 0 26.112 18.022 46.694 35.328 66.458 8.937 8.653 16.35 18.815 21.84 30.086l0.279 0.634c0.187 2.167 0.293 4.689 0.293 7.235 0 10.351-1.757 20.291-4.99 29.539l0.191-0.628c-5.939 23.962-11.878 48.333 1.434 70.246s38.4 29.286 63.386 36.659c13.325 2.768 25.129 7.707 35.637 14.482l-0.412-0.249c7.581 9.59 13.4 20.957 16.745 33.341l0.151 0.656c8.294 23.142 16.589 46.285 39.322 57.754s47.616 5.427 72.499-0.614c9.911-3.423 21.333-5.4 33.217-5.4 2.148 0 4.28 0.065 6.396 0.192l-0.291-0.014c2.15 0 2.662 3.174 9.114 8.090 22.63 17.51 58.982 45.056 89.702 45.056 25.395 0 44.851-15.667 64.102-31.232 9.168-8.594 20.016-15.528 31.981-20.242l0.685-0.238c1.716-0.1 3.722-0.157 5.742-0.157 11.98 0 23.491 2.007 34.215 5.703l-0.738-0.221c24.883 6.144 49.766 12.186 72.499 0.717s30.72-34.611 39.526-57.651c3.537-13.090 9.426-24.492 17.245-34.287l-0.145 0.188c10.079-6.598 21.903-11.517 34.593-14.027l0.633-0.104c24.883-7.066 50.074-14.234 63.59-36.147s7.475-46.182 1.638-70.246c-3.041-8.572-4.798-18.459-4.798-28.756 0-2.53 0.106-5.034 0.314-7.51l-0.022 0.324c6.18-13.627 14.155-25.306 23.799-35.373l-0.043 0.045c16.896-20.48 33.894-40.96 33.894-64s-16.691-42.086-33.28-60.211c-9.373-8.682-17.048-19.042-22.574-30.624l-0.261-0.608c-0.187-2.167-0.293-4.689-0.293-7.235 0-10.351 1.757-20.291 4.99-29.539l-0.191 0.628c5.939-23.962 11.878-48.333-1.536-70.144-9.983-15.058-25.050-26.058-42.707-30.609l-0.506-0.111zM804.454 286.413c2.765 0.717 1.331 0 0 0zM309.862-128c-0.020 0-0.044 0-0.068 0-10.485 0-20.34 2.694-28.913 7.427l0.309-0.156c-9.62 5.335-17.534 12.66-23.4 21.466l-0.152 0.243-47.002 70.656c-4.454 4.559-10.218 7.822-16.683 9.179l-0.213 0.037-87.962 3.482c-14.821 0.32-28.407 5.348-39.391 13.641l0.171-0.124c-11.856 9.128-19.648 23.033-20.475 38.783l-0.005 0.129v7.987c0.502 4.62 1.403 8.821 2.687 12.851l-0.127-0.46c1.763 5.507 4.021 10.287 6.81 14.699l-0.154-0.26 106.291 174.080c-13.511 6.889-24.535 16.96-32.366 29.262l-0.198 0.332c-17.408 28.467-10.24 58.061-3.994 84.275 2.584 8.012 4.242 17.262 4.602 26.844l0.006 0.19c-5.209 8.791-11.249 16.363-18.188 23.003l-0.039 0.037c-17.613 19.251-38.093 41.677-38.093 73.114 0 33.178 20.48 57.549 39.526 79.258 6.731 6.931 12.72 14.647 17.8 22.979l0.325 0.573c-0.533 9.652-2.18 18.708-4.821 27.33l0.213-0.808c-6.451 26.419-13.722 56.115 3.686 84.787s48.333 37.478 75.469 45.261c10.239 2.385 19.219 5.656 27.66 9.851l-0.729-0.328c4.585 7.3 8.512 15.71 11.353 24.606l0.218 0.79c9.011 25.088 19.251 53.555 49.254 68.813s60.416 7.68 87.45 1.024c6.732-1.893 15.218-3.68 23.867-4.97l1.221-0.15c1.434 1.331 3.072 2.765 5.018 4.301 26.214 19.763 65.229 49.459 103.014 49.459 33.075 0 56.73-19.149 77.517-35.942 6.962-6.355 14.832-11.905 23.347-16.396l0.615-0.296c10.634 0.528 20.639 2.362 30.133 5.35l-0.846-0.23c26.931 6.656 57.549 14.234 87.552-1.024s40.243-43.52 49.357-68.506c3.026-10.061 7.033-18.821 12.048-26.889l-0.272 0.47c7.515-3.726 16.286-6.924 25.44-9.139l0.877-0.179c27.648-7.782 58.47-16.486 76.083-45.158s10.24-59.699 3.891-84.582c-2.471-7.937-4.088-17.113-4.498-26.602l-0.008-0.227c5.743-10.515 12.303-19.588 19.845-27.738l-0.082 0.090c18.227-22.221 38.4-46.694 38.4-76.39 0-31.334-20.48-53.453-38.195-73.011-7.003-6.798-13.105-14.464-18.148-22.84l-0.284-0.508c0.42-9.535 2.038-18.533 4.708-27.065l-0.202 0.749c6.554-26.624 13.824-56.32-3.686-84.992-7.662-12.58-18.404-22.6-31.204-29.184l-0.438-0.205 91.341-148.89 14.643-23.757c5.325-8.359 8.715-18.422 9.311-29.23l0.007-0.158c0.041-0.77 0.065-1.671 0.065-2.577 0-9.544-2.611-18.477-7.158-26.126l0.13 0.236c-5.246-8.67-12.53-15.627-21.211-20.335l-0.293-0.145c-9.062-4.98-19.814-8.019-31.251-8.293l-0.083-0.002-87.962-3.686c-3.503-0.595-6.636-1.777-9.443-3.448l0.125 0.069c-2.971-1.458-5.465-3.461-7.443-5.899l-0.032-0.040-46.899-70.656c-5.891-8.964-13.629-16.244-22.715-21.435l-0.325-0.171c-8.44-4.645-18.497-7.378-29.192-7.378-0.285 0-0.57 0.002-0.854 0.006h0.043c-10.958 0.197-21.144 3.332-29.855 8.647l0.261-0.148c-9.159 5.664-16.659 13.164-22.157 22.035l-0.166 0.288-111.104 181.146c-11.173-5.432-24.306-8.607-38.181-8.607-14.85 0-28.85 3.637-41.158 10.070l0.491-0.234c-19.763-32.461-52.019-85.402-76.902-126.054-35.021-57.549-35.021-57.549-35.43-58.061-5.47-9.028-12.854-16.379-21.629-21.653l-0.285-0.159c-8.427-5.12-18.579-8.219-29.442-8.396l-0.050-0.001zM240.742-1.229c1.912-1.99 3.664-4.165 5.217-6.484l0.108-0.172 47.002-70.656 1.229-1.741-48.026 72.294c-1.749 2.518-3.566 4.725-5.544 6.774l0.015-0.016zM567.91 139.981l133.12-216.269 1.126-1.536-132.813 215.757c-0.403 0.782-0.881 1.456-1.438 2.053l0.005-0.005zM145.715 61.542l52.122-2.048c17.577-1.099 33.757-6.168 47.947-14.312l-0.535 0.283c14.608-7.858 26.716-18.592 35.932-31.528l0.215-0.318 27.853-41.984 115.917 189.338 2.048 2.458c8.74 9.77 21.386 15.89 35.461 15.89 11.127 0 21.36-3.825 29.458-10.231l-0.099 0.076 0.717-0.614c5.082-4.185 10.835-7.873 17.001-10.839l0.509-0.221c1.74-0.914 3.759-1.656 5.88-2.121l0.161-0.030 3.072 1.536c6.080 3.709 11.331 7.526 16.253 11.718l-0.176-0.147 0.819 0.614c7.040 5.675 15.87 9.399 25.526 10.228l0.176 0.012c1.476 0.175 3.186 0.276 4.919 0.276 16.776 0 31.36-9.381 38.793-23.184l0.115-0.234 112.64-183.296 27.75 41.984c9.402 13.346 21.516 24.151 35.601 31.781l0.546 0.271c13.631 7.812 29.777 12.845 46.996 13.911l0.312 0.015 52.019 2.048-63.283 103.322-75.366 122.88 54.989 15.872h1.536c9.96 2.398 18.627 5.488 26.85 9.368l-0.84-0.356c-0.792 9.994-2.535 19.234-5.159 28.096l0.244-0.96c-4.129 11.989-6.513 25.805-6.513 40.177 0 8.352 0.805 16.517 2.342 24.419l-0.13-0.802c7.712 21.972 20.108 40.635 36.067 55.529l0.080 0.074c6.426 6.437 12.225 13.505 17.295 21.1l0.318 0.506c-6.059 10.255-12.59 19.133-19.904 27.296l0.141-0.16c-14.848 17.92-29.798 36.045-35.533 57.446-1.459 7.19-2.295 15.454-2.295 23.913 0 14.041 2.301 27.545 6.547 40.154l-0.259-0.887v1.229c2.283 7.722 3.954 16.757 4.681 26.057l0.029 0.465c-7.745 3.66-16.857 6.89-26.325 9.21l-1.016 0.21c-23.216 4.925-43.595 14.756-60.823 28.393l0.305-0.233c-15.12 15.622-26.501 34.956-32.64 56.499l-0.231 0.947c-3.123 9.497-6.588 17.555-10.661 25.242l0.421-0.87c-10.098-1.17-19.162-3.004-27.938-5.519l1.212 0.297-6.246 18.842 5.222-19.046c-13.782-4.615-29.652-7.278-46.144-7.278-7.819 0-15.498 0.599-22.994 1.752l0.837-0.106c-23.072 6.766-42.936 18.351-59.267 33.661l0.079-0.074c-6.929 6.544-14.684 12.342-23.057 17.191l-0.597 0.319c-10.854-1.741-40.96-24.371-50.483-31.846-9.533-8.671-20.995-15.406-33.652-19.479l-0.652-0.181c-6.722-1.068-14.473-1.678-22.367-1.678-16.528 0-32.431 2.675-47.3 7.615l1.058-0.305c-7.785 2.271-17.066 4.109-26.585 5.155l-0.755 0.067c-3.624-6.771-7.088-14.793-9.901-23.114l-0.339-1.155c-6.289-22.516-17.605-41.888-32.707-57.593l0.042 0.044c-16.922-13.431-37.297-23.293-59.557-28.089l-0.962-0.174c-10.512-2.634-19.582-5.859-28.237-9.832l0.999 0.411c0.792-9.994 2.535-19.234 5.159-28.096l-0.244 0.96c4.129-11.989 6.513-25.805 6.513-40.177 0-8.352-0.805-16.517-2.342-24.419l0.13 0.802c-7.559-21.374-19.36-39.604-34.487-54.456l-0.021-0.021c-7.959-8.139-14.777-17.44-20.167-27.615l-0.313-0.648c5.349-8.254 11.224-15.431 17.8-21.896l0.018-0.017c16.026-14.982 28.471-33.59 36.045-54.53l0.307-0.971c1.413-7.108 2.222-15.281 2.222-23.642 0-14.137-2.312-27.734-6.579-40.434l0.261 0.895v-1.126c-2.295-7.729-3.967-16.765-4.682-26.068l-0.028-0.453 2.867-1.434c6.092-2.694 13.486-5.283 21.104-7.323l1.116-0.254c5.453-1.577 10.216-3.814 14.529-6.674l-0.193 0.121c2.623-1.667 4.903-3.491 6.967-5.533l-0.004 0.004h2.355l5.939-10.24c3.227-5.618 5.131-12.351 5.131-19.529 0-4.517-0.754-8.858-2.142-12.904l0.083 0.279c-1.286-4.176-3.1-7.814-5.406-11.078l0.081 0.121zM220.262 13.619l3.891-2.048c3.52-1.954 6.497-3.886 9.336-5.995l-0.222 0.158c-2.567 1.933-5.478 3.831-8.515 5.532l-0.394 0.203zM832.102 21.504v0zM220.262 262.451l-128.717-210.637c-0.614-1.024-1.126-2.048-1.638-3.072l2.56 4.301 127.795 209.306zM508.518 116.634c2.171-0.439 4.666-0.69 7.219-0.69s5.049 0.251 7.462 0.73l-0.242-0.040c-2.171-0.415-4.667-0.653-7.219-0.653s-5.049 0.238-7.469 0.692l0.25-0.039zM462.438 139.878l13.312-8.397c-3.994 2.662-7.475 5.325-10.24 7.578v0c-0.728 0.526-1.638 0.842-2.622 0.842-0.158 0-0.315-0.008-0.469-0.024l0.019 0.002zM563.61 139.162v0c-2.458-2.048-5.325-4.403-8.397-6.656l11.571 7.987c-0.070 0.004-0.153 0.006-0.236 0.006-1.266 0-2.413-0.511-3.246-1.338v0zM805.478 265.933v-0.717l18.022 6.042-13.312-3.891h-0.614zM332.186 815.821c-0.273 0.006-0.594 0.010-0.916 0.010-6.706 0-13.048-1.553-18.688-4.319l0.25 0.111c-15.565-7.885-22.016-25.907-29.491-46.797-4.363-16.17-12.008-30.188-22.225-41.904l0.106 0.124c-12.362-9.011-27.071-15.624-43.015-18.825l-0.71-0.119c-22.63-6.451-42.291-11.981-51.2-27.238s-4.608-33.997 0.717-55.808c3.412-9.6 5.384-20.673 5.384-32.206 0-4.64-0.319-9.205-0.937-13.675l0.059 0.518c-6.306-15.274-15.291-28.267-26.48-38.975l-0.041-0.039c-15.77-18.022-30.72-34.918-30.72-53.965 0-16.589 13.107-30.72 28.262-47.206 11.694-10.699 20.978-23.827 27.078-38.604l0.262-0.718c0.582-4.026 0.914-8.676 0.914-13.402 0-11.444-1.947-22.432-5.528-32.653l0.211 0.692c-5.325-22.016-10.24-40.96-0.614-55.91 5.004-7.459 11.978-13.247 20.182-16.683l0.298-0.111c3.379-1.536 7.578-3.072 12.8-4.915l20.48-6.963-0.819 0.614c-0.757 0.554-1.647 0.978-2.61 1.218l-0.052 0.011c-11.531 3.091-21.304 6.587-30.708 10.763l1.319-0.523c-8.484 3.487-15.455 9.207-20.38 16.433l-0.1 0.156c-9.421 15.155-4.71 34.816 0 55.603l20.685-3.584-20.48 4.403c3.285 9.237 5.183 19.891 5.183 30.989 0 4.819-0.358 9.554-1.049 14.18l0.064-0.522c-6.209 15.4-15.403 28.44-26.948 38.938l-0.085 0.077c-14.746 15.872-28.467 30.72-28.467 47.616 0 19.149 15.565 36.864 30.72 53.965 11.152 10.758 20.070 23.75 26.044 38.265l0.273 0.75c0.563 3.944 0.885 8.498 0.885 13.128 0 11.359-1.937 22.266-5.498 32.408l0.21-0.685c-5.222 21.299-10.24 40.96-0.819 56.32s29.798 20.992 51.2 27.136c16.61 3.386 31.274 9.99 43.951 19.17l-0.328-0.226c10.226 11.581 17.919 25.649 22.058 41.166l0.162 0.715c7.168 19.968 14.029 38.81 29.594 46.797 5.399 2.648 11.749 4.197 18.462 4.197 1.034 0 2.060-0.037 3.076-0.109l-0.137 0.008zM839.168 625.971l19.763-4.301s0 0.512 0 0.717 0 0 0 0.512zM420.352 804.147h-1.126c-2.671-0.574-5.773-0.943-8.946-1.023l-0.065-0.001c3.409 0.065 6.687 0.472 9.847 1.188l-0.324-0.062zM606.618 804.864c3.568-0.396 7.705-0.622 11.895-0.622 13.002 0 25.496 2.177 37.137 6.187l-0.801-0.24h1.024c11.466 3.774 24.663 5.951 38.369 5.951 2.605 0 5.191-0.079 7.756-0.234l-0.353 0.017c-2.562 0.193-5.549 0.304-8.562 0.304-13.602 0-26.68-2.248-38.881-6.392l0.851 0.251c-10.891-3.7-23.435-5.835-36.479-5.835-4.211 0-8.37 0.223-12.467 0.657l0.51-0.044zM473.498 841.421c-14.009-8.751-25.865-17.119-37.242-26.070l0.89 0.675-2.458-2.15 2.253 1.741c12.902 9.728 25.498 18.739 36.557 25.805zM514.458 856.474c4.255-0.050 8.334-0.72 12.178-1.924l-0.3 0.081c-3.551 1.15-7.637 1.812-11.878 1.812s-8.327-0.663-12.16-1.89l0.282 0.078c3.46 1.028 7.458 1.691 11.587 1.841l0.086 0.002zM631.706 292.557c-34.317-19.35-75.343-30.75-119.032-30.75-1.353 0-2.703 0.011-4.051 0.033l0.203-0.003c-45.436 0.701-87.737 13.513-123.998 35.338l1.118-0.624c-50.025 30.090-86.826 77.832-102.041 134.419l-0.359 1.569c-4.265 15.928-6.715 34.215-6.715 53.074 0 41.461 11.841 80.156 32.325 112.888l-0.522-0.894c31.742 50.583 80.983 87.688 139.063 103.056l1.635 0.368c19.205 5.353 41.259 8.43 64.031 8.43 41.227 0 80.099-10.084 114.283-27.921l-1.367 0.649h1.024c0.717 0 0 0 0 0v0h1.331l1.946-1.024c18.471-10.18 34.405-21.871 48.649-35.33l-0.112 0.105c13.942-13.192 26.127-28.013 36.313-44.218l0.551-0.94 0.512-0.922c20.65-32.243 32.917-71.578 32.917-113.778 0-20.372-2.859-40.076-8.197-58.734l0.368 1.503c-17.224-58.978-56.273-106.865-107.594-135.298l-1.155-0.587h-1.126zM508.826 294.605c1.163-0.023 2.534-0.036 3.908-0.036 36.804 0 71.407 9.421 101.531 25.982l-1.093-0.551 1.024 0.614c45.396 24.725 79.19 65.925 93.662 115.376l0.341 1.36c4.224 14.648 6.653 31.473 6.653 48.865 0 35.465-10.1 68.571-27.581 96.598l0.449-0.772v0.41c-9.236 14.961-19.804 27.874-31.854 39.233l-0.095 0.089c-12.097 11.472-25.747 21.499-40.554 29.69l-1.020 0.518-1.434 0.819h-1.434c-0.819 0 0 0 0 0v0h-0.614c-28.087 14.677-61.347 23.288-96.618 23.288-19.5 0-38.386-2.632-56.32-7.56l1.489 0.349c-51.054-13.5-93.153-45.23-119.831-87.64l-0.489-0.834c-17.099-27.267-27.241-60.406-27.241-95.915 0-16.131 2.093-31.773 6.022-46.669l-0.285 1.272c13.269-49.709 44.659-90.539 86.49-115.845l0.858-0.482c29.943-18.021 65.946-28.962 104.447-29.693l0.206-0.003zM628.019 682.189s0 0 0 0zM513.638 242.586h-4.813c-48.984 0.887-94.569 14.661-133.741 38.060l1.235-0.684-0.819 0.512c-54.453 32.672-94.506 84.601-111.023 146.164l-0.389 1.702c-4.676 17.369-7.361 37.31-7.361 57.879 0 45.117 12.922 87.215 35.266 122.796l-0.564-0.963c34.528 55.274 88.348 95.751 151.837 112.251l1.763 0.389c20.906 5.839 44.914 9.195 69.705 9.195 38.589 0 75.279-8.132 108.45-22.775l-1.719 0.677 6.451-3.277 1.434 0.819 7.68-4.915 9.421-2.867 0.307-2.458 8.602-4.403v-0.614l2.355-1.229c14.034-9.044 26.252-18.659 37.494-29.294l-0.118 0.11c15.204-14.345 28.473-30.48 39.545-48.133l0.596-1.019 0.512-0.819c21.969-34.711 35.008-76.966 35.008-122.267 0-22.351-3.174-43.96-9.096-64.402l0.405 1.632c-18.512-64.585-61.211-117.027-117.419-147.946l-1.262-0.636-2.56-1.229c-36.702-20.306-80.468-32.256-127.025-32.256-0.055 0-0.11 0-0.165 0h0.008zM510.157 314.266c1.030-0.020 2.244-0.031 3.461-0.031 32.848 0 63.753 8.315 90.727 22.955l-1.004-0.498h0.717c40.717 22.232 71.016 59.237 83.97 103.637l0.305 1.221c3.97 13.435 6.255 28.87 6.255 44.838 0 31.76-9.037 61.41-24.68 86.517l0.403-0.693v0.614c-8.286 13.482-17.771 25.117-28.592 35.356l-0.080 0.075c-9.068 8.431-19.122 16.041-29.9 22.578l-0.82 0.462h-0.819l-11.469 7.066-7.578 3.686c-22.618 10.274-49.049 16.262-76.879 16.262-17.564 0-34.571-2.385-50.714-6.849l1.334 0.315c-45.892-12.074-83.72-40.632-107.592-78.811l-0.44-0.754c-15.327-24.467-24.418-54.198-24.418-86.053 0-14.505 1.885-28.57 5.423-41.963l-0.257 1.142c11.843-44.642 40.009-81.316 77.567-104.017l0.769-0.431c26.858-16.197 59.171-26.014 93.73-26.622l0.171-0.002z" />
</font>
</defs>
</svg>
